<svg width="500" height="500" viewBox="0 0 500 500" fill="none" xmlns="http://www.w3.org/2000/svg">
<g clip-path="url(#clip0_1089_819)">
<path d="M382.812 0H117.188C52.4666 0 0 52.4666 0 117.188V382.812C0 447.533 52.4666 500 117.188 500H382.812C447.533 500 500 447.533 500 382.812V117.188C500 52.4666 447.533 0 382.812 0Z" fill="#1F1F1F"/>
<path fill-rule="evenodd" clip-rule="evenodd" d="M296.168 89.7815C286.992 84.6783 276.667 82 266.167 82C256.967 82 247.293 84.2389 239.017 88.1814L188.621 116.159L138.226 144.137L138.216 144.142C128.591 149.508 120.577 157.353 115.008 166.863C109.442 176.367 106.521 187.188 106.548 198.202V303.616C106.525 314.627 109.447 325.444 115.013 334.945C120.582 344.451 128.594 352.293 138.216 357.657L138.226 357.663L236.156 412.028L236.167 412.035C240.773 414.596 245.914 416.595 250.947 417.422C255.329 418.142 262.775 418.468 268.807 413.57C271.229 411.603 273.916 409.007 275.711 405.027C277.232 401.653 277.672 398.12 277.966 395.755L278.072 394.9V253.371V251.391C283.229 250.236 288.452 248.439 292.977 246.06L293.198 245.944L293.415 245.819L293.417 245.818L294.085 245.432L294.756 245.045L296.022 244.314C297.711 243.337 300.176 241.912 303.277 240.116C309.48 236.525 318.231 231.449 328.427 225.511C348.814 213.64 375.006 198.307 398.168 184.495C400.454 183.131 403.504 181.171 406.015 178.252C408.882 174.918 410.47 171.057 411 166.816C411.374 163.826 411.067 160.548 409.588 157.321C408.197 154.288 406.157 152.155 404.461 150.706C401.77 148.408 398.036 146.335 394.939 144.614L394.928 144.609C394.653 144.456 394.383 144.306 394.119 144.159L394.109 144.153L296.179 89.7877L296.168 89.7815ZM251.106 251.195C246.36 250.138 240.933 248.447 236.381 245.871L236.33 245.842L190.407 219.296L156.079 198.675C150.052 195.054 148.101 187.233 151.722 181.206C155.342 175.179 163.163 173.229 169.19 176.849L203.334 197.36L248.961 223.735C250.473 224.581 253.185 225.573 256.646 226.344C260.05 227.103 263.266 227.447 265.342 227.447C269.697 227.447 276.334 225.986 280.933 223.626L281.356 223.382L281.65 223.212C282.066 222.971 282.614 222.655 283.283 222.268C284.967 221.296 287.425 219.874 290.519 218.083C296.707 214.5 305.44 209.434 315.615 203.509C334.537 192.491 358.423 178.511 380.207 165.557L283.799 112.036C278.407 109.036 272.338 107.461 266.167 107.461C259.997 107.461 253.928 109.036 248.536 112.036L245.65 113.642H245.61L150.613 166.381L150.605 166.385C144.954 169.538 140.249 174.145 136.979 179.729C133.707 185.316 131.991 191.677 132.009 198.151L132.009 198.168V303.645L132.009 303.661C131.993 310.133 133.711 316.491 136.982 322.076C140.251 327.656 144.954 332.261 150.602 335.412L150.613 335.419L248.536 389.78C250.024 390.608 251.413 391.217 252.611 391.637V252.908V251.515C252.108 251.413 251.605 251.307 251.106 251.195Z" fill="#AAE116"/>
<path d="M236.381 245.871C240.933 248.447 246.36 250.138 251.106 251.195C251.605 251.307 252.108 251.413 252.611 251.515V252.908V391.637C251.413 391.217 250.024 390.608 248.536 389.78L150.613 335.419L150.602 335.412C144.954 332.261 140.251 327.656 136.982 322.076C133.711 316.491 131.993 310.133 132.009 303.661L132.009 303.645V198.168L132.009 198.151C131.991 191.677 133.707 185.316 136.979 179.729C140.249 174.145 144.954 169.538 150.605 166.385L150.613 166.381L245.61 113.642H245.65L248.536 112.036C253.928 109.036 259.997 107.461 266.167 107.461C272.338 107.461 278.407 109.036 283.799 112.036L380.207 165.557C358.423 178.511 334.537 192.491 315.615 203.509C305.44 209.434 296.707 214.5 290.519 218.083C287.425 219.874 284.967 221.296 283.283 222.268C282.614 222.655 282.066 222.971 281.65 223.212L281.356 223.382L280.933 223.626C276.334 225.986 269.697 227.447 265.342 227.447C263.266 227.447 260.05 227.103 256.646 226.344C253.185 225.573 250.473 224.581 248.961 223.735L203.334 197.36L169.19 176.849C163.163 173.229 155.342 175.179 151.722 181.206C148.101 187.233 150.052 195.054 156.079 198.675L190.407 219.296L236.33 245.842L236.381 245.871Z" fill="#AAE116"/>
<path fill-rule="evenodd" clip-rule="evenodd" d="M425.787 198.186C425.787 191.155 420.087 185.456 413.056 185.456C406.026 185.456 400.326 191.155 400.326 198.186V250.908C400.326 257.939 406.026 263.639 413.056 263.639C420.087 263.639 425.787 257.939 425.787 250.908V198.186ZM345.132 384.861C351.279 381.449 353.497 373.7 350.085 367.552C346.674 361.405 338.924 359.187 332.777 362.599L296.052 382.98C289.905 386.391 287.687 394.141 291.099 400.288C294.511 406.436 302.26 408.654 308.407 405.242L345.132 384.861Z" fill="#FFFAEF"/>
<path d="M296.168 89.7815C286.992 84.6783 276.667 82 266.167 82C256.97 82 247.291 84.2409 239.017 88.1814L138.226 144.137L138.216 144.142C128.591 149.508 120.577 157.353 115.008 166.863C109.442 176.367 106.521 187.188 106.548 198.202V303.616C106.525 314.627 109.447 325.444 115.013 334.945C120.582 344.451 128.594 352.293 138.216 357.657L138.226 357.663L236.156 412.028L236.167 412.035C240.773 414.596 245.914 416.595 250.947 417.422C255.329 418.142 262.775 418.468 268.807 413.57C271.229 411.603 273.916 409.007 275.711 405.027C277.232 401.653 277.672 398.12 277.966 395.755L278.072 394.9V290.12C278.072 283.089 272.373 277.39 265.342 277.39C258.311 277.39 252.611 283.089 252.611 290.12V391.637C251.413 391.217 250.024 390.608 248.536 389.78L150.613 335.419L150.602 335.412C144.954 332.261 140.251 327.656 136.982 322.076C133.711 316.491 131.993 310.133 132.009 303.661L132.009 303.645V198.168L132.009 198.151C131.991 191.677 133.707 185.316 136.979 179.729C140.249 174.145 144.954 169.538 150.605 166.385L150.613 166.381L245.61 113.642H245.65L248.536 112.036C253.928 109.036 259.997 107.461 266.167 107.461C272.338 107.461 278.407 109.036 283.799 112.036L380.207 165.557C358.423 178.511 334.537 192.491 315.615 203.509C305.44 209.434 296.707 214.5 290.519 218.083C287.425 219.874 284.967 221.296 283.283 222.268C282.614 222.655 282.066 222.971 281.65 223.212L281.356 223.382L280.933 223.626C276.334 225.986 269.697 227.447 265.342 227.447C263.266 227.447 260.05 227.103 256.646 226.344C253.185 225.573 250.473 224.581 248.961 223.735L203.334 197.36L169.19 176.849C163.163 173.229 155.342 175.179 151.722 181.206C148.101 187.233 150.052 195.054 156.079 198.675L190.407 219.296L236.33 245.842L236.381 245.871C240.933 248.447 246.36 250.138 251.106 251.195C255.938 252.272 261.04 252.908 265.342 252.908C273.68 252.908 284.54 250.495 292.977 246.06L293.198 245.944L293.415 245.819L293.417 245.818L294.085 245.432L294.756 245.045L296.022 244.314C297.711 243.337 300.176 241.912 303.277 240.116C309.48 236.525 318.231 231.449 328.427 225.511C348.814 213.64 375.006 198.307 398.168 184.495C400.454 183.131 403.504 181.171 406.015 178.252C408.882 174.918 410.47 171.057 411 166.816C411.374 163.826 411.067 160.548 409.588 157.321C408.197 154.288 406.157 152.155 404.461 150.706C401.77 148.408 398.036 146.335 394.939 144.614L394.928 144.609C394.653 144.456 394.383 144.306 394.119 144.159L394.109 144.153L296.179 89.7877L296.168 89.7815Z" fill="#FFFAEF"/>
<path fill-rule="evenodd" clip-rule="evenodd" d="M81.6713 144.437C85.0462 138.269 92.7821 136.004 98.95 139.379L124.9 153.579C131.068 156.954 133.332 164.689 129.958 170.857C126.583 177.025 118.847 179.289 112.679 175.914L86.7285 161.715C80.5606 158.34 78.2965 150.604 81.6713 144.437Z" fill="#FFFAEF"/>
<path fill-rule="evenodd" clip-rule="evenodd" d="M71.7845 129.982C66.9034 129.982 63.4608 133.77 63.4608 137.816C63.4608 141.862 66.9034 145.65 71.7845 145.65C76.6656 145.65 80.1082 141.862 80.1082 137.816C80.1082 133.77 76.6656 129.982 71.7845 129.982ZM38 137.816C38 119.147 53.4099 104.521 71.7845 104.521C90.1592 104.521 105.569 119.147 105.569 137.816C105.569 156.485 90.1592 171.111 71.7845 171.111C53.4099 171.111 38 156.485 38 137.816Z" fill="#FFFAEF"/>
<path fill-rule="evenodd" clip-rule="evenodd" d="M450.269 273.934C457.3 273.934 463 279.633 463 286.664V345.909C463 350.127 460.91 354.072 457.42 356.441L404.05 392.675C398.233 396.624 390.316 395.11 386.367 389.293C382.418 383.476 383.932 375.559 389.749 371.61L426.247 346.831L352.386 304.568C346.283 301.077 344.167 293.299 347.659 287.196C351.15 281.094 358.928 278.978 365.031 282.469L437.539 323.958V286.664C437.539 279.633 443.239 273.934 450.269 273.934Z" fill="#FFFAEF"/>
</g>
<defs>
<clipPath id="clip0_1089_819">
<rect width="500" height="500" rx="120" fill="white"/>
</clipPath>
</defs>
</svg>
