<svg width="500" height="500" viewBox="0 0 500 500" fill="none" xmlns="http://www.w3.org/2000/svg">
<g clip-path="url(#clip0_744_605)">
<path d="M382.812 0H117.188C52.4666 0 0 52.4666 0 117.188V382.812C0 447.533 52.4666 500 117.188 500H382.812C447.533 500 500 447.533 500 382.812V117.188C500 52.4666 447.533 0 382.812 0Z" fill="#F4F2ED"/>
<path d="M271.068 369.792H405.389C409.654 369.794 413.846 368.681 417.541 366.565C421.228 364.457 424.295 361.416 426.436 357.747C428.565 354.09 429.687 349.934 429.685 345.702C429.683 341.471 428.557 337.316 426.424 333.661L336.219 178.806C334.079 175.138 331.012 172.098 327.326 169.989C323.626 167.873 319.438 166.76 315.176 166.76C310.913 166.76 306.725 167.873 303.025 169.989C299.34 172.098 296.273 175.138 294.133 178.806L271.068 218.429L225.971 140.948C223.829 137.281 220.761 134.241 217.074 132.134C213.373 130.019 209.184 128.906 204.922 128.906C200.659 128.906 196.47 130.019 192.769 132.134C189.082 134.241 186.014 137.281 183.873 140.948L71.6211 333.661C69.4878 337.316 68.3629 341.471 68.3612 345.703C68.3595 349.934 69.481 354.091 71.6113 357.747C73.7516 361.416 76.819 364.457 80.5058 366.565C84.2054 368.683 88.3952 369.796 92.6582 369.792H176.975C210.381 369.792 235.018 355.249 251.969 326.876L293.125 256.233L315.17 218.429L381.328 331.987H293.125L271.068 369.792ZM175.6 331.948L116.758 331.935L204.961 180.532L248.971 256.233L219.504 306.831C208.246 325.241 195.459 331.948 175.6 331.948Z" fill="#00DC82"/>
</g>
<defs>
<clipPath id="clip0_744_605">
<rect width="500" height="500" fill="white"/>
</clipPath>
</defs>
</svg>
