<svg xmlns="http://www.w3.org/2000/svg" width="1024" height="1024" viewBox="0 0 1024 1024" version="1.1">
	<rect x="0" y="0" width="100%" height="100%" fill="#FFFFFF" />
	<path d="M 481.500 132.625 C 412.373 139.514, 352.329 160.509, 300 196.088 C 271.887 215.203, 241.584 242.500, 220.611 267.601 C 171.568 326.297, 142.109 396.032, 133.843 473 C 131.873 491.336, 132.159 535.749, 134.364 554 C 137.911 583.365, 146.913 621.584, 155.738 644.750 C 156.116 645.743, 140.180 646, 78.107 646 C 0.667 646, 0 646.017, 0 648 C 0 649.983, 0.667 650, 78.801 650 L 157.602 650 164.051 664.710 C 194.391 733.915, 246.341 793.998, 310.140 833.668 C 359.601 864.423, 415.138 883.583, 471.759 889.426 C 489.429 891.249, 528.612 891.526, 546 889.952 C 610.776 884.085, 669.915 863.163, 724 826.977 C 784.888 786.240, 833.693 727.273, 861.989 660.256 L 866.314 650.012 945.407 649.756 C 1023.640 649.503, 1024.503 649.478, 1024.787 647.500 C 1025.072 645.513, 1024.577 645.502, 946.537 645.762 C 903.342 645.906, 868 645.885, 868 645.715 C 868 645.545, 869.809 640.027, 872.019 633.453 C 880.210 609.093, 886.497 581.156, 889.675 555 C 892.075 535.242, 892.095 486.306, 889.711 467.408 C 880.585 395.084, 853.699 330.407, 809.809 275.198 C 774.135 230.324, 727.294 193.060, 675.780 168.571 C 638.854 151.017, 601.202 139.923, 559.795 134.396 C 548.096 132.834, 492.107 131.567, 481.500 132.625 M 489 155.616 C 453.347 158.880, 427.174 163.949, 401.131 172.635 C 292.503 208.865, 208.607 292.856, 172.949 401.077 C 159.898 440.689, 153.342 489.742, 155.879 528.814 C 161.790 619.873, 195.402 697.063, 256.492 759.875 C 314.165 819.172, 389.065 855.856, 473.500 866.158 C 487.879 867.912, 535.698 867.894, 550.500 866.128 C 631.806 856.429, 703.760 822.280, 761.379 766.046 C 791.008 737.129, 813.538 706.090, 831.461 669.500 C 835.502 661.250, 839.114 653.465, 839.487 652.199 L 840.167 649.898 781.991 650.056 C 741.980 650.165, 723.482 649.882, 722.750 649.150 C 721.997 648.397, 722.060 647.633, 722.965 646.542 C 724.068 645.213, 723.848 645.001, 721.372 645.009 C 717.432 645.021, 683.572 648.818, 680.476 649.595 C 679.046 649.954, 677.337 649.695, 676.487 648.989 C 675.624 648.273, 675 648.181, 675 648.771 C 675 651.011, 671.795 650.886, 669.464 648.554 C 668.130 647.221, 666.778 646.550, 666.460 647.065 C 665.724 648.255, 661.384 648.276, 659.184 647.099 C 658.258 646.603, 655.475 645.904, 653 645.546 C 648.551 644.902, 648.474 644.940, 646.229 648.933 C 641.749 656.896, 638.288 657.405, 580.943 658.540 L 544.386 659.263 540.966 665.858 C 536.872 673.754, 528.188 682.751, 521.730 685.787 C 514.553 689.161, 499.525 691.283, 482 691.398 C 467.235 691.495, 466.234 691.375, 460.880 688.865 C 453.338 685.329, 447.893 680.207, 442.556 671.631 C 436.126 661.299, 429.261 644.551, 427.902 635.883 C 425.425 620.076, 429.099 595.772, 436.165 581.229 C 438.277 576.880, 441.762 572.147, 446.014 567.849 C 454.017 559.761, 458.679 558.041, 472.932 557.917 L 482.500 557.833 477 555.206 C 469.220 551.489, 458.847 551.485, 450.825 555.196 C 444.140 558.288, 436.822 564.705, 432.803 571 C 424.380 584.193, 420.997 611.971, 424.615 638.230 C 425.159 642.179, 424.979 643.071, 423.524 643.629 C 422.565 643.997, 411.142 641.771, 398.140 638.683 C 353.759 628.141, 290.665 614.621, 275.818 612.471 C 271.631 611.865, 270.837 612.076, 268.318 614.462 C 262.009 620.437, 252.550 622.964, 236.410 622.985 C 226.010 622.999, 224.936 622.808, 219.158 619.921 C 211.720 616.205, 206.385 609.397, 202.240 598.334 C 199.795 591.809, 199.217 591.021, 196.872 591.011 C 193.640 590.998, 191.504 588.660, 192.533 586.263 C 192.950 585.293, 193.578 574.150, 193.930 561.500 L 194.570 538.500 200.015 525.500 C 203.010 518.350, 206.519 511.514, 207.812 510.309 C 211.765 506.627, 228.690 498.982, 244.226 493.861 C 252.336 491.187, 259.552 489, 260.262 489 C 261.159 489, 261.440 487.812, 261.181 485.102 C 260.405 476.965, 265.961 470.488, 276.271 467.512 C 285.334 464.895, 290.389 465.024, 292.742 467.930 L 294.704 470.353 300.602 464.387 C 315.582 449.232, 337.466 432.711, 351.418 426.024 C 372.212 416.056, 400.489 409.853, 438.500 406.919 C 456.245 405.549, 514.648 405.420, 527.500 406.722 C 536.039 407.588, 536.744 407.508, 541.268 405.166 C 544.608 403.437, 548.229 402.557, 553.357 402.227 C 562.543 401.638, 564.617 402.649, 565.718 408.254 L 566.552 412.500 575.026 413.797 C 592.328 416.445, 613.107 421.104, 623.151 424.588 C 636.306 429.151, 669.046 445.240, 698 461.370 L 720.500 473.905 736.728 477.432 C 772.995 485.315, 784.603 488.939, 787.435 493.261 C 789.520 496.443, 793.720 508.923, 794.496 514.241 C 794.838 516.583, 795.451 524.662, 795.859 532.193 L 796.601 545.885 801.754 551.334 C 804.588 554.330, 807.193 557.920, 807.542 559.312 C 807.891 560.703, 807.989 571.214, 807.759 582.671 L 807.341 603.500 803.793 613.500 C 798.500 628.420, 798.225 628.875, 794.097 629.586 C 792.119 629.927, 786.225 631.251, 781 632.529 C 775.775 633.807, 764.877 636.254, 756.783 637.967 C 744.565 640.552, 729.684 645.400, 731.126 646.325 C 731.332 646.457, 756.457 646.325, 786.960 646.032 L 842.421 645.500 845.716 637.042 C 864.582 588.617, 872.223 530.513, 866.892 476 C 854.316 347.392, 771.353 234.764, 651.425 183.486 C 608.658 165.200, 565.505 156.228, 517 155.538 C 504.075 155.354, 491.475 155.389, 489 155.616 M 553.500 405.776 C 550.007 406.110, 543 408.962, 543 410.049 C 543 410.961, 554.285 413, 559.332 413 C 561.349 413, 563 412.842, 563 412.649 C 563 412.456, 562.522 410.928, 561.939 409.254 C 560.824 406.056, 558.893 405.260, 553.500 405.776 M 451.282 410.015 C 407.868 412.490, 377.119 418.528, 354.250 429.068 C 344.738 433.452, 343.267 434.871, 351.811 431.420 C 363.299 426.780, 382.501 423.017, 394.750 423.006 C 399.901 423.001, 401 423.291, 401 424.655 C 401 426.195, 401.127 426.195, 402.829 424.655 C 406.535 421.301, 434.026 423.157, 450 427.841 C 465.931 432.512, 480.413 440.443, 488.118 448.716 C 496.519 457.735, 496.725 461.742, 489.500 475.553 C 484.813 484.514, 480.338 490.951, 472.158 500.500 C 469.331 503.800, 467.014 506.837, 467.009 507.250 C 467.004 507.663, 492.105 508, 522.790 508 C 569.512 508, 579.549 507.752, 584.540 506.475 C 590.176 505.033, 625.027 493.934, 625.917 493.298 C 627.126 492.433, 623.379 491.856, 601.452 489.532 C 569.828 486.180, 568.424 485.910, 567.495 482.984 C 567.094 481.721, 565.630 480.874, 563.194 480.494 C 555.031 479.223, 551.650 477.633, 542.279 470.661 C 536.901 466.660, 525.750 458.517, 517.500 452.567 C 492.525 434.554, 492 434.109, 492 430.937 C 492 429.387, 492.424 427.856, 492.942 427.536 C 494.654 426.478, 521.179 423.137, 541 421.482 C 554.916 420.321, 564.939 420.052, 576 420.544 C 584.525 420.923, 591.270 420.988, 590.989 420.689 C 590.187 419.835, 568.503 417, 562.774 417 C 559.938 417, 552.528 416.484, 546.309 415.854 C 536.707 414.880, 535 414.446, 535 412.981 C 535 411.642, 533.823 411.119, 529.750 410.651 C 520.274 409.562, 466.828 409.129, 451.282 410.015 M 540.500 425.137 C 523.464 426.605, 497.547 430.096, 496.567 431.055 C 495.424 432.171, 493.555 430.631, 512.500 444.185 C 521.300 450.482, 533.450 459.322, 539.500 463.831 C 556.008 476.133, 556.030 476.141, 577.370 477.163 C 598.903 478.194, 708.021 475.313, 709.664 473.669 C 710.600 472.734, 679.478 455.220, 656.217 443.592 C 633.458 432.216, 623.127 427.995, 615.529 426.970 C 596.064 424.343, 559.942 423.461, 540.500 425.137 M 381.500 428.488 C 369.312 430.216, 363.911 431.569, 355.092 435.100 C 340.550 440.923, 322.827 452.963, 307.152 467.668 C 299.740 474.621, 298.647 476.109, 297.412 480.927 C 296.647 483.912, 296.215 486.548, 296.452 486.785 C 296.854 487.187, 333.464 485.735, 356.857 484.389 L 367.214 483.793 372.334 472.646 C 375.149 466.516, 381.176 453.944, 385.727 444.709 C 390.277 435.474, 394 427.712, 394 427.459 C 394 426.835, 392.003 426.999, 381.500 428.488 M 402.700 430.684 C 396.673 440.231, 381.355 473.611, 379.426 481.398 L 378.709 484.296 429.104 483.560 C 463.431 483.059, 479.926 482.471, 480.836 481.718 C 483.585 479.443, 490 465.081, 490 461.202 C 490 456.167, 485.433 450.772, 475.610 444.202 C 460.833 434.318, 441.069 428.599, 417.357 427.345 L 405.213 426.702 402.700 430.684 M 383.624 457.539 C 382.659 460.053, 382.943 460.702, 384.122 458.675 C 384.706 457.671, 384.973 456.639, 384.715 456.382 C 384.458 456.124, 383.966 456.645, 383.624 457.539 M 375.459 476.717 C 372.814 483.198, 368.016 492.550, 364.797 497.500 L 358.943 506.500 409.721 507.008 C 460.255 507.513, 460.508 507.505, 462.205 505.433 C 463.143 504.289, 466.573 500.173, 469.827 496.287 C 473.082 492.402, 476.085 488.671, 476.503 487.996 C 477.100 487.028, 466.324 486.926, 425.631 487.513 L 374 488.257 374.033 485.878 C 374.051 484.570, 375.602 479.463, 377.479 474.529 C 379.356 469.595, 380.751 465.418, 380.580 465.246 C 380.408 465.075, 378.104 470.237, 375.459 476.717 M 280.500 470.895 C 269.990 473.465, 265.354 477.408, 266.161 483.091 C 266.685 486.785, 271.227 488.444, 280.725 488.411 C 285.249 488.395, 289.124 488.184, 289.336 487.941 C 289.549 487.699, 290.008 484.286, 290.358 480.357 C 290.890 474.387, 290.707 472.883, 289.247 471.199 C 287.534 469.223, 287.363 469.217, 280.500 470.895 M 675.500 479.553 C 659 480.237, 630.425 480.856, 612 480.929 C 591.752 481.009, 579.104 481.415, 580.028 481.956 C 580.868 482.448, 592.343 484.226, 605.528 485.907 C 633.954 489.532, 637.728 490.473, 640.530 494.631 C 641.661 496.309, 647.241 509.115, 652.930 523.091 C 665.129 553.057, 666.329 555.571, 669.160 557.086 C 671.508 558.342, 673.587 558.266, 728 554.931 C 745.875 553.835, 764.325 552.492, 769 551.946 C 781.332 550.506, 781.533 550.194, 782.265 531.376 C 782.852 516.298, 784.002 510.499, 786.256 511.254 C 787.157 511.556, 787.500 515.026, 787.500 523.836 C 787.500 536.092, 788.117 537.974, 790.996 534.505 C 792.567 532.612, 791.467 517.336, 789.339 511.500 C 788.537 509.300, 786.963 504.905, 785.843 501.733 C 784.722 498.561, 782.997 495.534, 782.009 495.005 C 775.474 491.508, 711.399 491.174, 668.500 494.414 C 650.283 495.789, 646.099 495.501, 648.560 493.040 C 650.576 491.024, 704.718 488.005, 738.917 488.002 C 752.346 488.001, 763.146 487.813, 762.917 487.584 C 762.687 487.355, 753.245 485.105, 741.933 482.584 C 718.788 477.425, 722.619 477.600, 675.500 479.553 M 322 490.693 C 304.062 491.487, 289.208 492.587, 287.500 493.247 C 284.442 494.429, 273 504.612, 273 506.152 C 273 506.618, 290.775 507, 312.500 507 C 335.074 507, 352 506.617, 352 506.105 C 352 505.613, 354.475 501.761, 357.500 497.544 C 360.525 493.328, 363 489.681, 363 489.439 C 363 488.901, 361.279 488.954, 322 490.693 M 257 494.500 C 246.028 497.539, 228.519 503.670, 224.018 506.051 L 220.500 507.912 242.682 507.956 L 264.864 508 267.127 504.750 C 268.371 502.962, 270.880 499.728, 272.701 497.563 C 275.140 494.662, 275.682 493.416, 274.756 492.828 C 272.560 491.434, 265.764 492.074, 257 494.500 M 627 497.652 C 623.975 498.460, 614.525 501.372, 606 504.122 C 597.475 506.872, 585.550 510.272, 579.500 511.677 C 568.093 514.327, 565 515.944, 565 519.258 C 565 522.196, 572.748 538.128, 575.650 541.157 C 577.051 542.618, 579.840 544.128, 581.848 544.511 C 586.813 545.458, 652.164 545.247, 654.761 544.276 C 656.744 543.534, 656.420 542.470, 647.279 519.750 C 636.488 492.927, 638.102 494.684, 627 497.652 M 294.361 511.749 L 268.222 512.033 267.621 515.266 C 266.187 522.988, 265.781 547.211, 266.905 558.061 C 268.196 570.522, 271.648 589.015, 272.926 590.313 C 273.765 591.166, 349.230 603.076, 349.867 602.457 C 350.069 602.260, 349.707 597.690, 349.063 592.300 C 346.413 570.103, 346.737 524.863, 349.630 513.336 L 350.217 511 335.358 511.233 C 327.186 511.361, 308.737 511.593, 294.361 511.749 M 355.691 511.750 C 355.456 512.163, 354.642 514.975, 353.882 518 C 350.841 530.103, 352.686 601.452, 356.094 603.558 C 357.353 604.336, 403.623 612, 407.062 612 C 408.124 612, 411.975 599.911, 415.878 584.324 C 419.029 571.744, 421.329 565.237, 425.632 556.730 C 431.871 544.393, 442.585 531.400, 450.937 526.040 C 454.855 523.526, 456.169 521.951, 457.425 518.266 C 458.291 515.724, 459 513.049, 459 512.322 C 459 511.243, 449.537 511, 407.559 511 C 379.266 511, 355.926 511.337, 355.691 511.750 M 461.755 517.941 C 460.345 522.740, 459.200 524.513, 455.783 527.189 C 444.529 536.004, 434.639 547.828, 428.757 559.500 C 425.731 565.506, 420.479 581.744, 419.540 588 C 418.842 592.649, 412.624 612.465, 411.116 614.846 C 410.112 616.431, 395.216 614.824, 366 609.978 C 323.042 602.853, 258.686 593, 255.104 593 C 253.863 593, 253.561 600.611, 254.772 601.359 C 255.786 601.986, 278.098 604.484, 305.500 607.038 C 330.005 609.323, 368.188 614.226, 378.707 616.438 C 393.315 619.511, 407.620 626.725, 403.847 629.115 C 403.106 629.585, 401.421 629.976, 400.102 629.985 C 396.982 630.005, 359.158 623.696, 342.662 620.405 C 335.601 618.996, 329.644 618.023, 329.424 618.242 C 329.205 618.462, 338.357 620.796, 349.763 623.429 C 407.802 636.830, 417.611 639.119, 418.904 639.568 C 420.090 639.980, 420.205 637.448, 419.646 623.278 C 418.901 604.386, 420.189 592.503, 424.296 580.391 C 430.641 561.675, 444.176 550.180, 461.015 549.205 C 470.852 548.636, 477.225 550.155, 485.214 554.973 L 491.500 558.764 528.680 559.507 C 565.615 560.245, 565.882 560.236, 569.337 558.101 C 571.252 556.917, 573.749 554.064, 574.893 551.751 L 576.971 547.552 574.620 545.526 C 571.067 542.464, 568.383 538.071, 564.434 528.856 C 561.012 520.871, 560.641 518.017, 562.466 513.750 C 563.173 512.097, 560.459 512, 513.357 512.001 L 463.500 512.003 461.755 517.941 M 210.652 514.491 C 209.832 515.311, 208.613 517.673, 207.942 519.741 C 207.272 521.808, 205.211 526.526, 203.362 530.225 C 199.181 538.588, 198.954 541.463, 203.063 534.007 C 208.148 524.781, 213.845 520, 219.754 520 C 224.016 520, 232.385 524.577, 236.547 529.184 C 243.769 537.178, 247.987 549.485, 252.172 574.777 C 254.581 589.330, 253.832 588.246, 262.250 589.372 C 264.383 589.658, 266 589.450, 266 588.890 C 266 588.349, 265.005 582.640, 263.790 576.203 C 261.933 566.372, 261.573 560.901, 261.540 542 C 261.518 529.625, 261.826 518.038, 262.225 516.250 L 262.950 513 237.546 513 C 216.368 513, 211.895 513.248, 210.652 514.491 M 218.252 530.104 C 200.896 538.695, 195.696 575.254, 208.084 601.589 C 211.523 608.899, 219.099 616.379, 224.618 617.911 C 230.096 619.432, 241.475 619.258, 250.592 617.514 C 263.172 615.107, 270.141 609.113, 260.500 608.993 C 258.850 608.973, 255.660 608.120, 253.411 607.099 L 249.322 605.242 248.664 590.771 C 247.617 567.731, 244.262 551.962, 237.831 539.854 C 231.641 528.199, 226.885 525.831, 218.252 530.104 M 213.898 540.286 C 209.140 543.488, 204.258 553.569, 202.992 562.806 C 201.219 575.746, 204.390 592.937, 210.078 601.229 C 215.963 609.808, 220.529 613, 226.916 613 C 231.628 613, 236.982 608.928, 239.941 603.095 C 243.616 595.847, 246.294 582.151, 245.725 573.506 C 245.147 564.724, 241.478 553.190, 237.209 546.740 C 231.775 538.529, 220.960 535.535, 213.898 540.286 M 788.750 540.240 C 786.400 541.032, 786 541.715, 786 544.937 C 786 550.280, 782.698 553.521, 775.890 554.860 C 770.021 556.015, 754.143 557.241, 715.502 559.524 C 686.035 561.264, 668.635 561.410, 665.889 559.940 C 664.800 559.358, 662.907 556.595, 661.682 553.801 L 659.456 548.721 642.978 548.877 C 633.915 548.963, 622.740 549.317, 618.146 549.663 L 609.791 550.292 610.423 554.244 C 611.645 561.885, 613.580 564.922, 618.716 567.262 C 623.124 569.269, 624.993 569.433, 642.500 569.344 C 666.750 569.221, 742.638 564.298, 789.250 559.824 C 802.582 558.544, 804.242 557.699, 799.514 554.601 C 796.215 552.440, 794.058 549.007, 792.654 543.685 C 791.547 539.492, 791.388 539.351, 788.750 540.240 M 221.117 542.907 C 219.991 543.620, 220.450 545.510, 223.586 553.076 L 227.438 562.369 228.210 558.652 C 228.635 556.608, 229.661 553.622, 230.491 552.017 C 232.705 547.736, 232.371 546.197, 228.750 543.989 C 225.211 541.831, 223.253 541.554, 221.117 542.907 M 580.060 551.415 C 577.290 556.592, 571.961 561.858, 568.252 563.082 C 565.557 563.971, 556.110 564.089, 531.129 563.544 C 512.701 563.142, 496.807 562.655, 495.811 562.464 C 493.187 561.958, 493.470 562.543, 498.888 568.829 C 512.004 584.045, 517.405 596.913, 525.422 632.046 C 526.871 638.396, 529.308 646.252, 530.838 649.504 L 533.620 655.416 560.560 655.169 C 605.017 654.761, 634.904 653.242, 638.356 651.215 C 640.059 650.215, 643.413 645.916, 646.402 640.904 C 649.221 636.176, 652.740 630.719, 654.222 628.776 C 657.715 624.196, 665.097 619.346, 671.455 617.455 C 678.482 615.365, 701.346 612.698, 707.715 613.226 C 714.044 613.751, 713.979 614.025, 710.512 601.493 C 706.718 587.774, 707.508 582.278, 713.611 579.958 C 716.283 578.942, 764.815 574.002, 772.139 574.001 C 775.216 574, 777.573 574.643, 779.139 575.910 C 781.204 577.581, 781.500 578.679, 781.500 584.660 C 781.500 588.422, 781.113 593.024, 780.641 594.886 C 779.821 598.115, 779.892 598.244, 782.174 597.671 C 783.489 597.341, 788.938 596.764, 794.283 596.388 L 804 595.705 804 579.352 L 804 563 800.250 563.027 C 798.188 563.042, 792.225 563.483, 787 564.008 C 767.309 565.985, 665.790 573.088, 649 573.663 C 630.154 574.309, 618.724 573.192, 613.612 570.204 C 610.019 568.105, 607.355 563.143, 606.009 556.045 C 605.446 553.079, 604.757 550.424, 604.478 550.145 C 604.199 549.866, 598.942 549.381, 592.795 549.069 L 581.619 548.500 580.060 551.415 M 212.632 554.154 C 210.623 558.805, 209.013 565.896, 209.855 566.391 C 210.210 566.599, 212.441 567.091, 214.814 567.483 L 219.128 568.197 218.412 564.349 C 218.018 562.232, 216.911 558.250, 215.953 555.500 L 214.211 550.500 212.632 554.154 M 234.004 560.760 C 230.924 570.902, 231.334 572.425, 237.250 572.805 C 242.906 573.168, 243.063 572.598, 240.005 562.855 C 236.866 552.860, 236.448 552.714, 234.004 560.760 M 460.071 563.165 C 439.476 569.080, 425.362 610.595, 433.400 641.615 C 438.758 662.291, 449.903 679.155, 462 684.892 C 467.263 687.388, 468.189 687.494, 483.500 687.367 C 501.388 687.218, 513.417 685.430, 520.571 681.857 C 525.796 679.248, 534.315 670.501, 537.850 664.116 L 540.200 659.872 536.819 660.506 C 534.243 660.989, 533.039 660.700, 531.765 659.293 C 528.802 656.018, 524.958 646.352, 522.420 635.795 C 515.587 607.363, 513.773 601.253, 509.477 592.182 C 504.733 582.165, 496.398 570.312, 490.384 565.032 C 486.943 562.011, 486.888 562, 475.215 562.090 C 468.772 562.140, 461.957 562.623, 460.071 563.165 M 223.417 565.391 C 224.447 568.491, 221.436 571.998, 217.727 572.016 L 214.500 572.033 218.492 574.294 C 223.480 577.119, 223.835 578.846, 220.298 583.092 L 217.500 586.450 220.754 584.154 C 222.739 582.754, 225.079 581.983, 226.754 582.179 C 229.422 582.491, 229.509 582.344, 229.810 577.030 C 230.052 572.755, 229.742 571.284, 228.390 570.296 C 227.439 569.600, 225.789 567.787, 224.725 566.266 C 223.608 564.670, 223.055 564.300, 223.417 565.391 M 455.853 575.015 C 447.203 579.586, 438.061 594.191, 435.245 607.941 C 432.449 621.594, 436.027 643.621, 443.264 657.301 C 451.788 673.413, 467.418 680.876, 479.653 674.676 C 487.039 670.933, 490.590 667.566, 493.334 661.704 C 498.038 651.656, 500.815 633, 497.607 633 C 495.917 633, 495 635.157, 495 639.134 C 495 640.768, 494.272 645.307, 493.381 649.221 L 491.763 656.337 489.889 653.919 C 485.243 647.923, 478 636.688, 478 635.478 C 478 632.060, 480.975 631, 490.571 631 L 500 631 500 626.109 C 500 618.731, 495.458 602.626, 490.474 592.331 C 485.768 582.613, 481.032 577.583, 473.705 574.521 C 468.672 572.418, 460.332 572.649, 455.853 575.015 M 208 580.351 C 208 588.063, 208.728 588.553, 213.068 583.756 C 215.186 581.415, 216.936 579.211, 216.959 578.858 C 216.982 578.506, 215.762 577.922, 214.250 577.561 C 212.738 577.200, 210.713 576.671, 209.750 576.385 C 208.266 575.944, 208 576.547, 208 580.351 M 461 577 C 459.787 577.784, 459.931 577.972, 461.750 577.985 C 462.988 577.993, 464.007 578.563, 464.015 579.250 C 464.032 580.588, 465.956 578.145, 465.985 576.750 C 466.006 575.686, 462.783 575.848, 461 577 M 748.075 579.723 C 734.641 580.984, 723.494 582.172, 723.304 582.363 C 722.855 582.811, 726.991 612.324, 727.586 612.919 C 728.130 613.463, 760.074 609.380, 768.449 607.696 L 774.398 606.500 775.679 599.500 C 778.805 582.417, 778.562 578.817, 774.217 577.823 C 773.273 577.607, 761.509 578.462, 748.075 579.723 M 234.250 579.948 C 233.563 581.062, 233 582.672, 233 583.527 C 233 585.242, 236.943 591, 238.117 591 C 238.876 591, 241.449 580.116, 240.835 579.502 C 240.649 579.315, 239.372 578.884, 237.998 578.543 C 236.138 578.081, 235.181 578.440, 234.250 579.948 M 469.894 580.197 C 468.123 583.507, 467.443 604.240, 468.984 607.960 C 469.676 609.632, 470.698 611, 471.254 611 C 471.811 611, 475.859 607.479, 480.249 603.176 L 488.233 595.351 486.560 592.116 C 484.291 587.729, 478.264 581.188, 474.875 579.435 C 471.313 577.593, 471.286 577.597, 469.894 580.197 M 455.829 584.989 C 450.652 589.257, 446 596.673, 446 600.660 C 446 603.577, 446.754 604.526, 452.250 608.529 L 458.500 613.081 459.183 601.791 C 459.559 595.581, 460.066 588.587, 460.310 586.250 C 460.555 583.913, 460.462 582, 460.105 582 C 459.748 582, 457.824 583.345, 455.829 584.989 M 714.250 584.031 C 712.519 584.727, 712 585.741, 712 588.425 C 712 592.789, 718.728 617.655, 720.740 620.725 C 722.684 623.693, 722.261 623.707, 761.368 619.390 C 787.044 616.556, 794.403 616.034, 795.001 617.001 C 795.848 618.372, 799.802 608.808, 800.746 603.106 L 801.309 599.711 793.904 600.412 C 779.354 601.791, 779.115 601.871, 778.417 605.589 C 778.073 607.426, 777.249 609.378, 776.587 609.928 C 775.925 610.477, 767.085 612.048, 756.942 613.418 C 730.040 617.053, 725.390 617.440, 724.568 616.111 C 723.618 614.573, 720.029 591.441, 720.013 586.750 C 719.999 582.728, 718.846 582.184, 714.250 584.031 M 218.988 590.510 C 216.678 592.440, 214.090 594.410, 213.238 594.887 C 211.887 595.643, 211.985 596.186, 214.005 599.127 C 217.270 603.880, 221.185 608, 222.437 607.999 C 223.120 607.998, 223.500 604.245, 223.500 597.498 C 223.500 591.724, 223.430 586.999, 223.345 587 C 223.259 587, 221.299 588.579, 218.988 590.510 M 229.015 597.272 C 229.035 607.693, 229.841 609.167, 233.283 605.075 C 237.660 599.873, 237.635 598.413, 233.083 593.474 L 229 589.045 229.015 597.272 M 463.382 602.500 C 463.384 609.100, 463.546 611.670, 463.741 608.211 C 463.937 604.752, 463.936 599.352, 463.738 596.211 C 463.540 593.070, 463.380 595.900, 463.382 602.500 M 485.205 606.250 C 475.622 618.708, 476.943 622.730, 491.238 624.626 L 496.313 625.299 495.652 620.400 C 494.818 614.222, 490.950 601, 489.976 601 C 489.573 601, 487.426 603.362, 485.205 606.250 M 440 604.876 C 440 606.470, 449.115 614.647, 456.698 619.855 C 460.425 622.415, 463.627 625.302, 463.813 626.270 C 464.033 627.408, 460.793 631.462, 454.652 637.733 C 449.427 643.070, 445.368 647.786, 445.632 648.214 C 445.897 648.642, 448.564 646.344, 451.560 643.108 C 457.286 636.924, 462.735 633.577, 465.409 634.603 C 466.596 635.059, 467.011 636.648, 467.044 640.857 L 467.088 646.500 468.429 642.741 C 470.038 638.232, 471.758 636, 473.622 636 C 474.425 636, 475 634.957, 475 633.500 C 475 632.125, 475.918 630.082, 477.041 628.959 L 479.081 626.919 477.041 624.325 C 475.905 622.880, 475 620.238, 475 618.365 C 475 615.547, 474.635 614.998, 472.750 614.985 C 471.512 614.976, 469.847 614.556, 469.049 614.051 C 467.975 613.372, 467.133 613.897, 465.813 616.067 C 464.832 617.680, 463.265 619, 462.330 619 C 459.108 619, 452.291 614.955, 446.154 609.402 C 442.770 606.338, 440 604.302, 440 604.876 M 441.003 617.750 C 441.007 622.832, 443.042 639.217, 443.849 640.670 C 444.252 641.394, 447.374 638.794, 452.050 633.838 L 459.600 625.837 455.981 623.990 C 453.990 622.975, 450.043 620.311, 447.210 618.072 C 444.377 615.832, 441.821 614, 441.529 614 C 441.238 614, 441.001 615.688, 441.003 617.750 M 367.500 620.076 C 386.941 624.012, 393.395 624.905, 384.500 622.430 C 378.995 620.898, 351.631 615.932, 349.708 616.115 C 349.043 616.179, 357.050 617.961, 367.500 620.076 M 324.750 617.662 C 325.438 617.940, 326.563 617.940, 327.250 617.662 C 327.938 617.385, 327.375 617.158, 326 617.158 C 324.625 617.158, 324.063 617.385, 324.750 617.662 M 694 617.895 C 691.511 618.345, 690.976 618.720, 692.149 619.194 C 693.056 619.560, 694.329 621.466, 694.977 623.430 C 695.625 625.393, 696.763 627, 697.505 627 C 699.520 627, 714.454 624.873, 714.793 624.537 C 714.954 624.378, 714.308 622.617, 713.358 620.624 L 711.630 617 704.565 617.132 C 700.679 617.204, 695.925 617.548, 694 617.895 M 772 622.540 C 729.557 627.526, 694.906 631.060, 693.993 630.496 C 693.464 630.169, 692.659 628.461, 692.203 626.701 C 690.983 621.990, 687.948 620.813, 678.350 621.328 C 665.933 621.995, 658.134 627.163, 652.124 638.708 C 651.052 640.767, 651.263 640.991, 655.237 642.018 C 657.582 642.623, 660.281 643.345, 661.235 643.622 C 662.558 644.006, 663.533 642.863, 665.341 638.813 C 668.379 632.004, 670.839 629.885, 676.440 629.254 C 681.461 628.688, 684.819 630.268, 687.593 634.502 C 689.111 636.818, 689.081 637.232, 687.123 640.988 C 685.973 643.195, 685.295 645, 685.617 645 C 691.016 645, 731.741 639.040, 747.107 636.001 C 776.620 630.164, 790.126 626.554, 792.250 623.936 C 794.307 621.400, 794.497 619.950, 792.750 620.124 C 792.063 620.193, 782.725 621.280, 772 622.540 M 673.171 634.592 C 671.266 635.927, 670.947 636.939, 671.199 640.842 C 671.458 644.852, 671.824 645.546, 673.829 645.830 C 675.503 646.067, 677.261 645, 680.079 642.038 C 684.468 637.424, 684.662 636.805, 682.429 634.571 C 680.408 632.550, 676.073 632.560, 673.171 634.592 M 454.382 645.509 C 450.872 649.088, 448 652.535, 448 653.168 C 448 655.377, 456.019 664.917, 460.422 667.946 C 465.718 671.590, 467.567 671.928, 465.979 668.961 C 465.016 667.162, 463.060 649.199, 463.016 641.750 C 463.007 640.237, 462.497 639, 461.882 639 C 461.267 639, 457.892 641.929, 454.382 645.509 M 471.975 644.565 C 469.893 650.042, 471.097 666.524, 473.899 670.890 C 475.163 672.860, 482.927 668.986, 486.990 664.359 L 490.067 660.854 484.892 655.191 C 482.045 652.077, 478.595 647.835, 477.225 645.764 C 474.290 641.328, 473.293 641.100, 471.975 644.565 M 0.158 648 C 0.158 649.375, 0.385 649.938, 0.662 649.250 C 0.940 648.563, 0.940 647.438, 0.662 646.750 C 0.385 646.063, 0.158 646.625, 0.158 648" stroke="none" fill="#000000" fill-rule="evenodd"/>
</svg>