<svg xmlns="http://www.w3.org/2000/svg" width="1003" height="1024" viewBox="0 0 1003 1024" version="1.1">
	<rect x="0" y="0" width="100%" height="100%" fill="#FFFFFF" />
	<path d="M 475.500 36.684 C 439.284 38.530, 396.923 46.843, 356.500 60.038 C 236.991 99.047, 136.513 188.509, 80.813 305.500 C 40.885 389.362, 27.521 477.696, 40.068 574.823 C 43.871 604.263, 49.495 628.371, 59.851 659.633 C 77.519 712.969, 101.715 758.173, 136.860 803.500 C 185.728 866.528, 254.240 917.787, 330 948.001 C 373.099 965.190, 409.026 973.851, 459 979.100 C 474.280 980.705, 523.956 980.733, 541.500 979.147 C 599.940 973.863, 652.309 959.385, 704.696 934.028 C 781.262 896.969, 851.779 833.218, 895.969 761.110 C 936.065 695.683, 958.838 627.341, 966.149 550.500 C 967.740 533.780, 967.718 483.448, 966.113 466 C 958.670 385.130, 932.245 310.770, 886.687 242.500 C 869.304 216.450, 853.633 197.557, 828.993 172.940 C 754.673 98.688, 660.587 52.393, 558 39.597 C 533.912 36.593, 500.464 35.412, 475.500 36.684 M 479.500 60.654 C 444.394 63.447, 421.841 67.026, 392.500 74.460 C 361.969 82.196, 336.102 91.927, 306 107 C 215.587 152.273, 142.011 229.004, 99.734 322.112 C 61.519 406.271, 50.305 494.156, 66.126 585.500 C 70.682 611.804, 79.153 643.527, 88.136 667.925 C 94.033 683.939, 110.650 718.384, 121.547 737.181 C 151.334 788.565, 191.900 834.253, 238.500 868.903 C 304.526 917.997, 378.119 946.656, 460 955.160 C 478.826 957.116, 528.825 956.818, 547.411 954.640 C 635.125 944.360, 713.951 911.585, 777.500 858.970 C 829.772 815.692, 866.300 770.284, 895.119 712.761 C 933.999 635.156, 949.682 550.442, 941.449 462.500 C 936.234 406.792, 917.604 345.943, 890.333 295.545 C 825.831 176.344, 715.178 94.067, 584.500 68.138 C 554.571 62.200, 504.731 58.647, 479.500 60.654 M 463.500 82.086 C 409.131 87.655, 362.641 100.644, 317.236 122.952 C 282.246 140.143, 258.642 155.441, 228.500 180.461 C 215.454 191.291, 185.973 219.822, 185.990 221.602 C 186.004 223.092, 291.285 222.326, 295.255 220.807 C 299.798 219.069, 304.001 213.497, 303.996 209.215 C 303.991 204.111, 300.757 199.196, 296.228 197.408 C 286.347 193.509, 282.036 189.836, 278.966 182.699 C 273.126 169.125, 281.315 152.954, 296.035 148.991 C 298.583 148.305, 327.207 148.046, 380.692 148.227 C 457.288 148.486, 461.682 148.597, 465 150.362 C 487.273 162.211, 483.800 190.329, 459.247 196.934 C 451.804 198.937, 449.216 207.315, 455.375 209.469 C 458.463 210.549, 461.257 209.652, 527 186.474 C 585.543 165.835, 594.194 163.033, 596.150 164.080 C 598.498 165.337, 598.564 169.561, 596.250 170.485 C 595.288 170.869, 583.925 174.794, 571 179.206 C 558.075 183.618, 525.900 194.863, 499.500 204.196 C 473.100 213.529, 436.425 226.487, 418 232.993 C 399.575 239.499, 377.750 247.229, 369.500 250.172 L 354.500 255.522 354 304.264 C 353.725 331.073, 353.650 353.455, 353.833 354.004 C 354.017 354.552, 356.843 355, 360.114 355 C 365.971 355, 366.139 354.920, 371.186 349.750 C 374.004 346.863, 383.904 335.837, 393.185 325.250 C 408.387 307.907, 412.596 303.502, 410.379 307.250 C 409.972 307.938, 406.637 313, 402.968 318.500 C 393.869 332.140, 382 351.630, 382 352.933 C 382 353.605, 385.120 354, 390.420 354 L 398.841 354 407.670 344.400 L 416.500 334.800 417 295.150 L 417.500 255.500 466.750 255.241 C 513.188 254.996, 516 255.082, 515.995 256.741 C 515.992 257.708, 516.155 272.587, 516.357 289.804 L 516.723 321.108 508.206 334.304 C 503.521 341.562, 498.633 348.892, 497.344 350.594 C 493.968 355.051, 494.335 356, 499.438 356 L 503.875 356 517.188 340.728 C 524.509 332.328, 535.893 319.053, 542.484 311.228 C 549.074 303.403, 554.856 297, 555.332 297 C 555.807 297, 555.365 298.248, 554.348 299.773 C 553.332 301.298, 544.513 314.498, 534.750 329.106 C 524.987 343.714, 517 356.151, 517 356.744 C 517 357.361, 519.677 357.981, 523.250 358.193 L 529.500 358.564 534 354.017 C 538.429 349.542, 541.448 346.114, 574.865 307.627 C 600.229 278.413, 613.236 264, 614.235 264 C 614.731 264, 614.275 265.238, 613.223 266.750 C 597.350 289.562, 579.823 314.229, 565.160 334.392 C 555.204 348.083, 547.264 359.618, 547.516 360.025 C 547.768 360.433, 550.525 361.085, 553.644 361.475 C 556.762 361.864, 559.878 362.400, 560.568 362.664 C 561.289 362.941, 569.255 354.459, 579.335 342.679 C 595.824 323.409, 599 319.991, 599 321.513 C 599 321.860, 592.940 331.674, 585.533 343.322 C 578.126 354.970, 572.033 364.950, 571.993 365.500 C 571.953 366.050, 572.726 366.590, 573.710 366.701 C 574.879 366.832, 579.031 362.840, 585.671 355.201 C 591.265 348.765, 603.302 335.181, 612.421 325.013 L 629 306.527 629 278.763 L 629 251 635 251 L 641 251 641 240.500 L 641 230 655.094 230 C 668.346 230, 669.218 229.881, 669.710 228 C 670.207 226.100, 671.063 226.001, 686.867 226.027 L 703.500 226.054 720.643 208.277 C 730.071 198.500, 738.009 190.725, 738.282 191 C 738.556 191.275, 735.216 196, 730.861 201.500 C 726.505 207, 720.236 215.297, 716.929 219.937 C 709.562 230.274, 709.744 230.485, 725.390 229.743 L 736.476 229.218 743.219 234.859 L 749.962 240.500 749.981 247.272 C 749.999 253.773, 750.161 254.219, 754 258.384 L 758 262.724 758 272.501 L 758 282.279 762.946 281.693 C 769.283 280.942, 779.210 276.984, 790.137 270.849 C 799.059 265.840, 802.299 264.730, 800.035 267.458 C 797.910 270.018, 776.689 283.627, 771.424 285.806 C 768.632 286.961, 763.268 288.398, 759.503 289 C 755.739 289.601, 752.285 290.324, 751.829 290.605 C 751.373 290.887, 751 296.690, 751 303.500 C 751 310.310, 750.617 316.119, 750.149 316.408 C 749.251 316.963, 748.014 302.161, 748.005 290.769 C 748 284.421, 748.142 284.002, 750.500 283.411 C 752.943 282.798, 753 282.570, 753 273.464 C 753 264.171, 752.991 264.138, 749.804 261.644 C 746.873 259.350, 746.548 258.513, 745.884 251.556 C 745.173 244.115, 745.066 243.882, 740.329 239.459 C 735.794 235.224, 735.233 234.982, 731.110 235.475 C 728.696 235.764, 721.496 236.027, 715.110 236.061 L 703.500 236.122 689.500 254.281 C 672.997 275.687, 607.763 358.119, 601.199 365.863 C 596.087 371.893, 595.916 371.449, 604.871 375.421 L 609.241 377.359 615.371 370.921 C 618.742 367.380, 632.377 353.012, 645.671 338.992 C 672.529 310.666, 689.545 293.700, 688.749 296.039 C 687.765 298.928, 644.464 360.887, 630.840 378.899 C 628.178 382.419, 626 385.627, 626 386.029 C 626 386.431, 631.866 391.138, 639.036 396.489 C 646.205 401.840, 653.898 407.744, 656.130 409.609 C 658.363 411.474, 660.782 413, 661.506 413 C 662.230 413, 664.043 411.538, 665.536 409.750 C 667.028 407.962, 675.535 398.850, 684.440 389.500 C 704.244 368.707, 706.213 366.511, 718.338 351.686 L 728 339.871 728.063 306.186 C 728.125 273.322, 728.610 255.849, 729.534 253.180 C 729.785 252.454, 731.006 252.004, 732.246 252.180 L 734.500 252.500 735 293 L 735.500 333.500 741.729 327 C 753.099 315.135, 750.395 319.473, 719.598 362.500 C 708.575 377.900, 695.038 396.671, 689.515 404.213 C 683.993 411.756, 678.667 419.293, 677.681 420.963 L 675.887 424 686.346 424 L 696.805 424 725.652 393.758 C 741.519 377.124, 765.106 352.487, 778.070 339.008 C 844.023 270.429, 850.160 263.860, 849.613 262.434 C 848.854 260.455, 833.714 240.390, 825.518 230.500 C 812.528 214.825, 787.332 190.438, 768.500 175.312 C 702.598 122.380, 624.585 90.379, 542.205 82.487 C 525.436 80.881, 477.641 80.637, 463.500 82.086 M 236.923 229.923 C 232.877 233.970, 232.888 239.042, 236.952 243.106 L 239.905 246.059 301.702 245.779 C 358.823 245.521, 363.696 245.366, 366.096 243.736 C 369.999 241.084, 371.316 237.488, 369.926 233.277 C 367.820 226.896, 368.966 227, 300.955 227 L 239.846 227 236.923 229.923 M 647.371 237.477 C 646.805 238.950, 647.305 245.183, 648.551 252.204 L 649.208 255.908 641.854 256.204 L 634.500 256.500 634.222 279 L 633.943 301.500 638.135 297 C 665.699 267.412, 693 237.337, 693 236.561 C 693 236.253, 682.861 236, 670.469 236 C 651.521 236, 647.847 236.235, 647.371 237.477 M 423 294.212 L 423 327.425 427.977 322.523 C 430.714 319.827, 433.152 317.818, 433.394 318.060 C 433.635 318.302, 432.045 321.425, 429.859 325 C 425.170 332.671, 416 350.523, 416 351.982 C 416 352.581, 419.041 353, 423.387 353 L 430.774 353 439.004 343.253 C 448.543 331.954, 481.660 295.447, 485.043 292.500 C 488.772 289.252, 486.950 292.515, 478.278 304.621 C 466.888 320.519, 444.616 353.949, 445.095 354.428 C 445.318 354.650, 453.694 355.113, 463.708 355.458 C 480.609 356.039, 482.050 355.950, 483.778 354.222 C 484.802 353.198, 491.121 345.807, 497.820 337.797 L 510 323.233 510 292.117 L 510 261 466.500 261 L 423 261 423 294.212 M 444 275.500 L 444 284 447 284 L 450 284 450 275.500 L 450 267 447 267 L 444 267 444 275.500 M 457 275.500 L 457 284 460 284 L 463 284 463 275.500 L 463 267 460 267 L 457 267 457 275.500 M 470.667 267.667 C 470.300 268.033, 470 271.858, 470 276.167 L 470 284 473 284 L 476 284 476 275.500 C 476 267.262, 475.928 267, 473.667 267 C 472.383 267, 471.033 267.300, 470.667 267.667 M 483 275.500 L 483 284 486 284 L 489 284 489 275.500 L 489 267 486 267 L 483 267 483 275.500 M 496.713 267.621 C 496.321 268.013, 496 271.858, 496 276.167 L 496 284 499.540 284 L 503.081 284 502.790 275.750 C 502.509 267.751, 502.423 267.491, 499.963 267.204 C 498.567 267.041, 497.104 267.229, 496.713 267.621 M 843.733 282.053 C 829.771 299.207, 802.291 333.478, 772.810 370.500 C 758.795 388.100, 741.126 409.925, 733.545 419 C 725.964 428.075, 719.557 436.022, 719.308 436.660 C 719.059 437.298, 719.651 439.323, 720.624 441.160 C 721.597 442.997, 722.893 446.925, 723.503 449.888 L 724.613 455.276 733.519 444.388 C 750.303 423.867, 773.373 396.492, 789.047 378.500 C 797.671 368.600, 812.949 351.050, 822.998 339.500 C 833.046 327.950, 841.709 318.333, 842.248 318.129 C 842.787 317.924, 840.814 321.170, 837.864 325.340 C 786.859 397.442, 762.932 430.768, 748.111 450.349 C 743.595 456.316, 740.069 461.716, 740.276 462.349 C 740.484 462.982, 744.444 464.266, 749.077 465.203 L 757.500 466.905 760 464.153 C 761.375 462.639, 770.653 451.973, 780.618 440.450 C 790.583 428.928, 803.183 414.481, 808.618 408.346 C 814.053 402.211, 829.234 384.999, 842.354 370.096 C 855.474 355.193, 866.435 343, 866.711 343 C 867.911 343, 865.074 347.357, 847.446 372.591 C 823.781 406.465, 803.524 434.676, 790.208 452.306 C 784.472 459.900, 779.941 466.250, 780.139 466.419 C 780.338 466.588, 783.738 467.445, 787.695 468.323 L 794.890 469.920 801.287 463.210 C 804.805 459.519, 811.242 452.643, 815.592 447.930 C 833.474 428.550, 875.626 383.326, 877.975 381 C 879.364 379.625, 884.895 373.715, 890.266 367.866 L 900.032 357.232 896.921 349.366 C 887.869 326.481, 857.390 269.902, 854.182 270.027 C 853.807 270.041, 849.105 275.453, 843.733 282.053 M 144.363 277.250 C 142.898 279.587, 140.286 283.750, 138.557 286.500 C 131.693 297.420, 120.752 318.244, 114.651 332 C 95.099 376.089, 84.249 416.277, 79.529 462.102 C 77.830 478.598, 76.338 524.227, 77.364 528.316 C 78.008 530.881, 78.325 531, 84.481 531 L 90.923 531 92.036 526.750 C 96.864 508.322, 104.134 486.463, 109.311 474.807 L 111.839 469.115 108.430 466.515 C 103.332 462.626, 99.779 458.532, 97.070 453.425 L 94.639 448.844 96.436 431.672 C 97.423 422.227, 98.523 412.250, 98.879 409.500 L 99.526 404.500 124.013 404 L 148.500 403.500 148.757 338.250 C 148.926 295.476, 148.672 273, 148.020 273 C 147.473 273, 145.827 274.913, 144.363 277.250 M 660.667 344.667 C 660.300 345.033, 660 347.283, 660 349.667 L 660 354 673 354 L 686 354 686 349 L 686 344 673.667 344 C 666.883 344, 661.033 344.300, 660.667 344.667 M 693 349 L 693 354 697.500 354 L 702 354 702 349 L 702 344 697.500 344 L 693 344 693 349 M 345 366.162 C 330.421 367.277, 312.389 370.293, 304 373.020 C 290.788 377.313, 273.514 386.645, 251.597 401.327 L 229.693 416 185.969 416 C 148.323 416, 142.072 415.791, 141 414.500 C 139.990 413.283, 136.791 413, 124.058 413 L 108.360 413 107.207 423.250 C 104.858 444.118, 104.652 448.982, 106.010 451.520 C 109.007 457.120, 120.418 461.946, 130.750 461.984 C 133.088 461.993, 134.997 462.337, 134.993 462.750 C 134.989 463.163, 133.375 464.598, 131.405 465.939 C 121.893 472.418, 117.791 480.662, 106.247 516.502 C 94.291 553.622, 93.589 557.741, 93.539 591 C 93.494 621.200, 94.727 629.895, 101.503 647.182 C 101.987 648.417, 101.275 649.313, 98.831 650.549 C 90.994 654.513, 88.808 659.943, 92.936 665.192 C 99.142 673.081, 126.137 681.361, 168.500 688.367 C 182.028 690.605, 191.072 691.810, 218 694.963 C 233.815 696.814, 258.899 699.074, 295.500 701.944 C 338.460 705.313, 397.628 707.702, 470.102 708.993 C 625.109 711.756, 793.156 702.692, 868.500 687.506 C 891.976 682.774, 907.978 675.979, 908.794 670.397 C 909.205 667.588, 905.589 663.342, 901.538 661.878 C 898.884 660.918, 897.767 659.679, 896.452 656.235 C 895.525 653.807, 892.344 648.601, 889.383 644.666 C 886.422 640.730, 883.981 637.283, 883.957 637.005 C 883.933 636.727, 883.821 622.325, 883.707 605 C 883.433 563.324, 883.036 561.911, 868.850 552.074 C 864.173 548.831, 863.302 547.620, 860.509 540.477 C 853.701 523.061, 846.162 512.315, 833.744 502.325 C 817.330 489.121, 788.779 478.553, 764 476.511 C 759.875 476.171, 753.350 475.416, 749.500 474.834 C 742.060 473.709, 714.070 467.403, 713.358 466.692 C 713.126 466.459, 713.494 464.184, 714.175 461.635 C 715.166 457.929, 715.161 456.052, 714.149 452.268 C 711.556 442.572, 704.598 436.759, 693.383 434.919 C 687.244 433.911, 685.562 433.985, 681.145 435.452 C 678.328 436.387, 675.767 437.569, 675.453 438.076 C 674.097 440.270, 670.771 438.459, 660.588 429.981 C 625.179 400.504, 602.404 386.092, 581 379.616 C 557.412 372.481, 522.820 368.061, 474.500 366.010 C 446.780 364.834, 361.058 364.934, 345 366.162 M 892.399 379.250 C 886.428 386.538, 873.867 401.500, 864.485 412.500 C 826.357 457.202, 813.077 473.214, 813.034 474.534 C 812.993 475.781, 821.846 479.213, 823.100 478.438 C 823.587 478.137, 828.826 472.133, 834.742 465.094 C 840.659 458.055, 854.477 442.217, 865.449 429.898 C 887.848 404.749, 895.079 396.494, 903.178 386.830 L 908.768 380.160 906.683 373.080 C 905.536 369.186, 904.295 366, 903.926 366 C 903.556 366, 898.369 371.962, 892.399 379.250 M 379.750 374.747 C 372.738 374.919, 367 375.433, 367 375.888 C 367 376.344, 369.553 378.412, 372.672 380.483 L 378.345 384.249 413.422 383.119 C 470.766 381.272, 495.324 381.718, 545 385.509 C 555.725 386.328, 566.075 386.970, 568 386.935 C 571.170 386.879, 571.282 386.786, 569.186 385.945 C 566.429 384.839, 541.203 380.580, 528.500 379.075 C 496.654 375.301, 432.856 373.445, 379.750 374.747 M 317.319 378.071 C 307.555 380.122, 294.458 384.601, 288.259 388.010 C 284.537 390.056, 284.530 390.073, 287.500 389.684 C 289.150 389.468, 295.900 387.803, 302.500 385.983 C 313.307 383.003, 315.891 382.665, 328.500 382.587 C 341.430 382.508, 342.882 382.688, 347.500 384.953 C 353.990 388.136, 360.788 395.170, 364.284 402.321 C 365.816 405.452, 370.018 418.699, 373.623 431.757 C 377.227 444.816, 380.831 457.818, 381.630 460.651 L 383.085 465.803 389.292 465.266 C 392.707 464.971, 395.657 464.596, 395.849 464.432 C 396.041 464.269, 394.795 460.497, 393.080 456.051 C 389.325 446.315, 380.779 420.022, 378.437 411 C 377.509 407.425, 376.628 400.987, 376.479 396.694 C 376.280 390.947, 375.747 388.378, 374.459 386.955 C 371.218 383.374, 363.540 379.164, 357.356 377.577 C 348.665 375.347, 329.140 375.587, 317.319 378.071 M 895.626 406.154 C 888.155 416.244, 872.246 437.692, 860.272 453.815 C 833.178 490.296, 834.888 487.537, 838.021 489.710 C 839.384 490.656, 842.619 493.402, 845.208 495.812 C 847.797 498.223, 850.300 500.038, 850.770 499.847 C 851.694 499.471, 871.391 477.614, 893 452.985 C 900.425 444.522, 909.327 434.488, 912.781 430.686 C 916.750 426.318, 918.884 423.171, 918.578 422.137 C 918.311 421.237, 917.378 417.351, 916.504 413.502 C 912.970 397.948, 910.747 389.456, 909.998 388.654 C 909.563 388.189, 903.096 396.064, 895.626 406.154 M 315.389 390.423 C 302.894 393.275, 297.581 397.728, 291.054 410.821 C 287.276 418.400, 275 453.028, 275 456.106 C 275 458.855, 277.006 455.138, 281.531 444 C 289.557 424.247, 298.570 406.514, 302.546 402.653 C 308.247 397.116, 317.100 394.507, 330 394.561 C 338.761 394.599, 341.375 394.993, 345.780 396.939 C 352.110 399.736, 353.394 399.165, 348.747 395.621 C 341.378 390, 327.035 387.765, 315.389 390.423 M 400.168 390.858 C 382.126 391.797, 382.284 391.262, 391.485 420.324 C 394.476 429.771, 398.669 442.675, 400.803 449 L 404.682 460.500 417.091 460.407 C 423.916 460.357, 468.425 459.957, 516 459.519 C 597.139 458.771, 626.680 459.161, 670.500 461.555 L 680.500 462.101 674 455.940 C 658.203 440.967, 610.585 404.848, 598.797 398.898 C 591.963 395.448, 586.987 394.707, 555.500 392.451 C 531.898 390.761, 423.412 389.648, 400.168 390.858 M 280 401.865 C 273.523 404.414, 257.818 414.201, 248.369 421.576 C 233.872 432.891, 227.582 441.836, 228.194 450.264 C 228.632 456.310, 230.680 457.011, 248.666 457.280 L 263.438 457.500 267.676 445.598 C 272.219 432.845, 278.216 418.636, 283.641 407.775 C 285.488 404.076, 287 400.814, 287 400.525 C 287 399.594, 284.606 400.052, 280 401.865 M 116.535 425.250 C 116.230 427.038, 115.872 432.739, 115.740 437.920 L 115.500 447.341 118.500 449.115 C 120.469 450.279, 124.077 450.994, 129 451.194 L 136.500 451.500 136.780 438.740 C 136.948 431.068, 136.635 425.187, 135.995 423.990 C 135.054 422.232, 133.892 422, 126.010 422 L 117.091 422 116.535 425.250 M 142.345 427.543 C 142.019 428.392, 141.949 429.282, 142.188 429.521 C 142.427 429.761, 159.800 429.987, 180.793 430.023 C 218.010 430.089, 224.130 429.637, 222.469 426.950 C 222.114 426.376, 206.256 426, 182.410 426 C 147.755 426, 142.865 426.188, 142.345 427.543 M 916.512 429.781 C 915.418 431.277, 904.448 447.350, 892.133 465.500 C 879.819 483.650, 867.524 501.720, 864.813 505.655 L 859.882 512.809 863.773 520.655 C 865.913 524.970, 868.683 531.065, 869.928 534.200 C 871.804 538.925, 873.875 541.453, 882.027 548.975 L 891.861 558.050 908.181 557.775 L 924.500 557.500 925.248 553 C 926.721 544.133, 927.278 493.881, 926.085 477.500 C 924.605 457.191, 920.433 426.965, 919.119 427.031 C 918.779 427.049, 917.605 428.286, 916.512 429.781 M 212.946 439.805 C 202.831 446.558, 192.847 454.422, 188.054 459.412 C 185.425 462.149, 183.802 463, 181.211 463 C 171.955 463, 150.397 468.856, 138.500 474.602 L 132.500 477.500 152 478.129 C 167.055 478.615, 175.498 479.453, 189.039 481.805 C 222.868 487.680, 242.774 495.263, 230.441 497.577 C 225.972 498.415, 219.686 497.708, 194 493.476 C 167.800 489.159, 152.479 487.626, 142.802 488.352 C 135.494 488.900, 128.868 490.787, 127.717 492.648 C 127.427 493.117, 135.810 493.500, 146.345 493.500 C 164.048 493.500, 166.753 493.751, 182.023 496.817 L 198.546 500.134 198.157 517.104 C 197.252 556.564, 205.316 592.326, 218.625 607.874 C 226.562 617.148, 236.687 620.739, 264 623.968 C 299.213 628.132, 337.522 631.747, 338.349 630.984 C 339.779 629.666, 337.998 626.032, 335.683 625.547 C 334.483 625.295, 328.325 624.614, 322 624.033 C 242.718 616.754, 237.046 615.729, 226.330 606.755 C 217.274 599.171, 217.350 599, 229.742 599.001 C 246.630 599.003, 312.800 604.460, 326.934 607.017 C 335.360 608.541, 336 608.407, 336 605.111 C 336 602.640, 335.530 602.137, 332.750 601.632 C 326.144 600.431, 302.900 598.077, 282.500 596.544 C 249.051 594.030, 219.617 590.951, 218.516 589.849 C 218.219 589.552, 223.912 589.009, 231.168 588.642 C 238.423 588.274, 244.459 587.867, 244.581 587.737 C 244.703 587.607, 244.200 584.336, 243.465 580.470 C 239.649 560.410, 237.224 522.210, 238.923 508.896 C 240.630 495.505, 245.423 482.866, 252.636 472.725 C 254.959 469.460, 255.632 467.811, 254.766 467.511 C 254.070 467.269, 247.364 466.600, 239.865 466.024 C 219.444 464.455, 218 463.567, 218 452.584 C 218 446.709, 219.371 441.844, 222.153 437.846 C 226.107 432.164, 223.587 432.700, 212.946 439.805 M 142.500 436 C 142.101 436.646, 142.230 437.630, 142.787 438.187 C 143.966 439.366, 203.389 438.946, 204.584 437.750 C 204.996 437.337, 204.996 436.663, 204.584 436.250 C 203.248 434.912, 143.322 434.671, 142.500 436 M 317.718 437.035 C 308.581 439.323, 304.272 444.125, 305.357 450.811 C 306.608 458.519, 315.647 463.350, 329 463.446 C 338.517 463.515, 345.266 461.558, 349.595 457.475 C 353.691 453.612, 354.036 449.859, 350.749 444.898 C 347.181 439.514, 340.243 436.646, 330.052 436.343 C 325.348 436.203, 319.798 436.515, 317.718 437.035 M 364.114 442.098 C 361.871 447.587, 359.363 456.967, 359.911 457.820 C 360.813 459.225, 371.121 464.212, 371.774 463.560 C 372.537 462.796, 367.354 441.954, 366.086 440.686 C 365.432 440.032, 364.762 440.513, 364.114 442.098 M 684.500 443.968 C 682.662 444.306, 681.500 445.133, 681.500 446.103 C 681.500 446.973, 684.792 450.707, 688.816 454.399 C 695.412 460.453, 696.492 461.083, 699.797 460.806 C 702.732 460.561, 703.649 459.970, 704.392 457.844 C 707.063 450.200, 695.286 441.984, 684.500 443.968 M 309 446.923 C 309 456.043, 325.332 462.463, 339.473 458.902 C 343.483 457.893, 348.712 454.378, 347.704 453.371 C 347.469 453.135, 343.051 452.308, 337.888 451.532 C 332.725 450.756, 325.125 448.746, 321 447.064 C 311.233 443.083, 309 443.056, 309 446.923 M 523 466.553 C 519.975 466.737, 486.450 467.645, 448.500 468.571 C 410.550 469.496, 379.112 470.607, 378.637 471.040 C 376.410 473.068, 380.292 473.772, 397.223 474.410 C 446.711 476.274, 476.066 481.313, 501.634 492.334 C 512.579 497.052, 516.516 498.202, 528 500.041 C 535.425 501.229, 550.263 503.956, 560.973 506.101 C 582.793 510.470, 582.373 510.413, 581.438 508.899 C 580.593 507.532, 565.948 498.037, 559.944 494.964 C 552.842 491.328, 517.975 478.340, 507.925 475.586 C 490.838 470.903, 497.030 470.631, 519.777 475.064 C 552.821 481.505, 566.933 486.039, 593 498.591 C 603.725 503.755, 614.750 508.497, 617.500 509.129 C 624.187 510.664, 794 511.616, 794 510.117 C 794 507.962, 777.579 498.312, 764.083 492.535 C 751.008 486.939, 726.003 479.531, 701.940 474.123 C 681.822 469.602, 677.534 468.973, 660.500 468.043 C 642.140 467.040, 534.185 465.870, 523 466.553 M 262.606 471.629 C 254.188 483.056, 244.197 506.268, 246.962 507.976 C 247.609 508.376, 269.369 508.989, 295.319 509.339 C 321.269 509.688, 344.582 510.257, 347.127 510.603 L 351.754 511.232 352.907 504.610 C 353.542 500.967, 355.397 494.201, 357.030 489.574 C 358.664 484.946, 360 480.899, 360 480.580 C 360 480.261, 354.488 479.998, 347.750 479.995 C 332.889 479.990, 307.602 478.501, 288 476.477 C 271.306 474.753, 269 474.329, 269 472.981 C 269 471.641, 279.209 471.767, 306.500 473.445 C 347.510 475.966, 362.641 476.390, 363.475 475.041 C 363.888 474.372, 363.805 473.405, 363.292 472.892 C 362.778 472.378, 350.690 471.525, 336.429 470.997 C 312.520 470.111, 293.171 468.997, 273.847 467.394 L 266.195 466.759 262.606 471.629 M 369.230 483.250 C 366.364 488.330, 359 506.836, 359 508.956 C 359 510.774, 360.367 510.128, 367.444 504.969 C 382.058 494.315, 395.471 489.996, 413.910 490.007 C 446.472 490.027, 465.108 502.869, 475.984 532.783 C 477.240 536.238, 478.080 539.254, 477.849 539.484 C 477.619 539.714, 475.421 536.477, 472.965 532.290 C 464.014 517.029, 448.780 503.639, 435 498.921 C 425.830 495.781, 408.101 495.111, 397.339 497.498 C 384.273 500.396, 370.029 508.850, 363.846 517.375 C 359.686 523.112, 361.419 523.666, 367.319 518.484 C 370.169 515.981, 374.975 512.711, 378 511.217 C 382.875 508.809, 384.637 508.500, 393.500 508.500 C 402.111 508.500, 404.125 508.831, 408 510.883 C 420.589 517.550, 429.966 529.732, 436.956 548.500 L 439.563 555.500 452.531 556.644 C 472.342 558.390, 485.482 558.329, 487.014 556.483 C 488.524 554.664, 487.747 545.045, 485.488 537.591 C 482.424 527.484, 483.913 517.737, 489.672 510.185 L 492.283 506.762 502.141 507.461 C 507.564 507.846, 512 507.868, 512 507.511 C 512 506.359, 489.823 496.297, 479 492.539 C 459.670 485.827, 433.289 481.657, 393.500 479.024 C 370.690 477.514, 372.658 477.171, 369.230 483.250 M 592.404 483.844 C 592.797 484.480, 593.608 485, 594.206 485 C 594.805 485, 600.966 487.430, 607.897 490.400 C 614.829 493.370, 622.300 496.305, 624.500 496.922 C 631.734 498.951, 653.333 499.922, 694.718 500.080 C 736.427 500.238, 743.402 499.723, 744.681 496.388 C 745.359 494.621, 741.083 489.840, 736.028 486.711 C 732.571 484.572, 732.268 484.562, 666.028 484.469 C 629.438 484.418, 597.743 483.997, 595.595 483.532 C 592.719 482.910, 591.877 482.993, 592.404 483.844 M 766.009 485.683 C 766.014 486.132, 769.952 488.294, 774.759 490.486 C 786.723 495.943, 797.104 503.055, 805.892 511.817 C 812.742 518.646, 813.451 519.097, 815.574 517.960 C 819.509 515.854, 824.316 510.266, 823.661 508.559 C 821.822 503.766, 798.655 493.132, 779.890 488.468 C 774.175 487.047, 768.712 485.656, 767.750 485.375 C 766.788 485.095, 766.004 485.233, 766.009 485.683 M 137.698 498.444 C 130.656 500.956, 121 509.202, 121 512.704 C 121 513.263, 123.563 513.985, 126.695 514.308 C 141.160 515.801, 150.834 531.055, 155.989 560.500 C 157.990 571.933, 160.475 591.927, 161.540 605.179 L 162.157 612.858 168.329 613.396 C 171.723 613.692, 182.189 614.624, 191.586 615.467 C 200.984 616.310, 210.173 617, 212.007 617 L 215.341 617 209.323 611.554 C 205.323 607.935, 202.120 603.825, 199.775 599.304 C 193.448 587.105, 192.086 581.027, 189.062 551.500 C 187.940 540.551, 186.250 529.715, 185.073 525.928 C 182.706 518.315, 176.599 508.439, 172.369 505.382 C 162.117 497.974, 147.319 495.012, 137.698 498.444 M 245 524.579 C 245 537.487, 247.403 565.871, 249.311 575.500 L 250.500 581.500 266 582.249 C 274.525 582.661, 292.525 583.676, 306 584.504 C 339.709 586.576, 336.719 586.834, 337.964 581.750 C 340.173 572.724, 344.186 559.572, 345.933 555.627 C 347.251 552.651, 348.046 547.039, 348.784 535.500 C 349.347 526.700, 349.647 519.334, 349.451 519.130 C 348.342 517.981, 296.399 514.443, 264.750 513.361 L 245 512.686 245 524.579 M 494.976 516.750 C 491.828 520.741, 492.495 530.128, 496.340 535.938 C 500.143 541.685, 509.459 547.489, 517.995 549.431 C 527.354 551.559, 534.169 551.432, 549.500 548.843 C 561.827 546.761, 563.846 546.698, 588.500 547.614 C 602.800 548.145, 614.723 548.415, 614.995 548.212 C 616.133 547.365, 594.756 527.780, 590.773 526.021 C 582.774 522.489, 561.309 518.976, 526.500 515.502 C 518.250 514.678, 508.270 514.003, 504.323 514.002 C 497.684 514, 496.982 514.206, 494.976 516.750 M 777.500 516.115 C 767.600 516.556, 728.113 517.049, 689.752 517.209 C 651.391 517.369, 620.003 517.858, 620.002 518.295 C 620.001 518.733, 621.105 520.195, 622.455 521.545 L 624.909 524 715.205 523.985 C 764.867 523.976, 806.085 523.599, 806.799 523.145 C 808.667 521.961, 800.723 514.949, 797.747 515.156 C 796.511 515.242, 787.400 515.674, 777.500 516.115 M 826.020 520.671 L 819.650 526.658 821.101 536.579 L 822.552 546.500 835.026 546.136 C 841.887 545.936, 847.780 545.328, 848.121 544.786 C 850.097 541.647, 843.493 526.947, 836.773 519.524 L 832.390 514.683 826.020 520.671 M 390.991 522.302 C 380.110 526.208, 372.519 531.926, 364.342 542.378 C 332.288 583.343, 340.394 652.590, 380.183 677.711 C 392.214 685.306, 409.136 687.257, 422.821 682.628 C 429.460 680.381, 436.639 676.306, 435.668 675.335 C 435.422 675.089, 432.519 675.588, 429.216 676.444 C 421.535 678.434, 407.112 678.441, 399.495 676.457 C 380.821 671.593, 364.997 656.814, 357.247 637 C 353.016 626.181, 352.540 622.945, 352.538 605 C 352.537 585.065, 353.694 578.908, 359.958 565.500 C 368.585 547.036, 382.153 534.975, 399.495 530.357 C 402.248 529.624, 406.225 529.018, 408.333 529.012 C 413.023 528.997, 412.808 527.743, 407.456 523.884 C 401.890 519.871, 398.635 519.558, 390.991 522.302 M 605 528.990 C 605 529.300, 608.199 532.692, 612.109 536.527 C 619.672 543.946, 627 552.587, 627 554.086 C 627 554.623, 614.242 554.734, 595.750 554.359 C 566.061 553.756, 563.975 553.834, 554 555.922 C 531.300 560.672, 517.181 559.770, 502.617 552.640 L 494 548.421 494 552.664 C 494 554.997, 493.500 558.002, 492.890 559.343 C 490.775 563.985, 488.094 564.496, 465.500 564.559 L 444.500 564.617 444.656 567.941 C 444.741 569.769, 445.317 571.578, 445.934 571.959 C 446.552 572.341, 455.932 573.856, 466.779 575.326 C 481.036 577.259, 494.396 578.273, 515 578.989 C 550.793 580.231, 562.322 580.957, 564.098 582.082 C 564.970 582.634, 561.723 582.983, 555.500 583.005 C 536.344 583.073, 527.684 585.478, 523.459 591.906 C 522.160 593.883, 519.920 599.325, 518.481 604 C 510.364 630.375, 505.860 643.968, 505.078 644.452 C 503.876 645.195, 502.002 639.517, 501.992 635.101 C 501.987 633.120, 503.426 621.277, 505.190 608.782 C 506.954 596.287, 508.047 585.712, 507.619 585.282 C 506.404 584.062, 482.195 583.233, 464.250 583.796 L 448 584.307 448 588.521 C 448 592.729, 448.017 592.749, 459.250 601.087 C 480.686 617, 490.266 627.739, 500.855 647.731 C 503.410 652.554, 505.950 656.500, 506.500 656.500 C 507.826 656.500, 512.884 641.840, 519.611 618.500 C 526.048 596.164, 527.873 592.863, 535.793 589.237 L 541.440 586.652 578.470 586.828 C 598.836 586.925, 619.016 587.289, 623.313 587.637 C 631.048 588.263, 631.159 588.238, 634.313 585.185 C 638.817 580.826, 643.898 578.988, 651.218 579.070 L 657.500 579.140 652.177 580.953 C 642.053 584.401, 637.976 590.997, 630.513 616 C 621.668 645.635, 622.394 644, 618.085 644 C 616.022 644, 614.089 643.755, 613.789 643.456 C 613.490 643.157, 613.852 640.344, 614.593 637.206 C 615.334 634.068, 617.311 625.695, 618.988 618.601 C 623.524 599.400, 622.006 600.288, 614.031 621.500 C 607.181 639.721, 604.397 644.843, 600.273 646.809 C 598.473 647.668, 597 648.679, 597 649.055 C 597 649.432, 599.047 649.971, 601.549 650.253 C 604.052 650.535, 606.414 651.080, 606.799 651.465 C 607.184 651.850, 606.074 653.438, 604.333 654.994 C 600.536 658.386, 598.735 658.612, 564.500 659.979 C 551.300 660.506, 533.126 661.236, 524.114 661.602 C 515.102 661.969, 508.352 662.616, 509.114 663.040 C 513.302 665.372, 564.399 668.217, 605 668.379 C 634.223 668.495, 635.667 668.412, 639.500 666.390 C 643.386 664.340, 645.118 664.261, 700.500 663.605 C 731.850 663.233, 770.885 662.533, 787.245 662.048 C 814.218 661.250, 817.668 661.334, 824.277 662.945 C 830.794 664.535, 833.757 664.622, 852.340 663.770 C 863.767 663.245, 875.228 662.287, 877.808 661.641 C 882.206 660.539, 882.491 660.267, 882.361 657.314 C 882.247 654.718, 875.593 642, 874.350 642 C 874.148 642, 873.288 643.739, 872.438 645.864 C 871.551 648.079, 869.816 650.218, 868.372 650.876 C 865.863 652.020, 839.229 655.597, 838.582 654.878 C 838.396 654.670, 835.935 644.370, 833.114 631.989 C 824.567 594.476, 820.541 584.337, 812.927 581.140 C 810.778 580.238, 809.016 579.163, 809.010 578.750 C 808.987 577.050, 816.995 578.171, 821.581 580.508 C 826.366 582.948, 826.773 582.988, 836.500 581.963 C 842 581.383, 850.325 580.264, 855 579.475 C 865.502 577.703, 867.572 578.174, 869.057 582.672 C 870.347 586.582, 869.767 587.881, 867.551 586.043 C 865.660 584.473, 860.436 584.456, 854.001 586 C 848.749 587.260, 848.118 588.249, 850.532 591.441 C 851.339 592.509, 852 595.096, 852 597.191 L 852 601 861 601 C 869.995 601, 870 601.001, 870 603.566 C 870 608.581, 868.397 609.999, 862.715 610.011 C 855.774 610.026, 849.912 611.048, 850.579 612.128 C 850.875 612.607, 853.454 613.005, 856.309 613.011 C 859.164 613.017, 863.188 613.301, 865.250 613.642 C 868.956 614.254, 869 614.316, 868.985 618.881 C 868.976 621.421, 868.639 624.015, 868.235 624.644 C 867.831 625.273, 864.006 626.114, 859.736 626.513 C 855.465 626.912, 851.766 627.569, 851.516 627.975 C 851.265 628.380, 854.488 629.001, 858.677 629.355 C 862.867 629.710, 866.872 630.479, 867.577 631.064 C 870.505 633.494, 871.249 628.120, 871.581 602.183 C 871.840 581.915, 871.618 576.021, 870.492 573.327 L 869.077 569.941 865.289 571.596 C 860.691 573.604, 851.412 575.963, 848.028 575.984 C 846.308 575.995, 847.676 574.977, 852.528 572.634 C 859.382 569.325, 865 565.039, 865 563.121 C 865 562.584, 863.313 560.746, 861.250 559.035 C 857.830 556.199, 857.412 556.079, 856.500 557.674 C 851.422 566.553, 836.133 571.451, 804.822 574.229 C 785.199 575.970, 657.529 575.935, 628 574.180 C 563.026 570.319, 548.535 569.078, 526.138 565.458 C 508.696 562.638, 503.020 560.586, 515 561.431 C 519.125 561.722, 530.600 562.215, 540.500 562.526 C 550.400 562.837, 574.925 563.859, 595 564.796 C 621.376 566.027, 649.945 566.493, 698 566.474 C 799.894 566.433, 843.552 563.593, 851.832 556.466 C 853.299 555.203, 854.179 553.848, 853.786 553.454 C 851.747 551.411, 824.678 552.268, 818.691 554.565 C 817.518 555.015, 817.071 553.737, 816.507 548.316 C 816.117 544.567, 815.042 539.025, 814.117 536 C 812.771 531.594, 811.970 530.433, 810.088 530.163 C 807.808 529.837, 807.752 530, 808.218 535.613 C 808.781 542.407, 807.568 548.715, 805.192 551.342 C 799.449 557.692, 787.345 559.591, 743.079 561.087 C 688.810 562.921, 663.074 560.945, 648 553.787 C 644.134 551.952, 625.997 535.694, 626.002 534.069 C 626.003 533.756, 665.669 533.373, 714.148 533.218 C 762.628 533.063, 802.678 532.699, 803.147 532.409 C 803.616 532.119, 804 531.189, 804 530.342 C 804 528.963, 794.248 528.848, 710.750 529.249 C 659.462 529.496, 614.688 529.411, 611.250 529.062 C 607.813 528.712, 605 528.680, 605 528.990 M 120.850 530.519 C 113.838 534.328, 106.783 549.255, 103.370 567.500 C 100.764 581.433, 100.721 612.889, 103.292 624.805 C 106.941 641.721, 111.817 651.163, 117.663 652.630 C 128.204 655.276, 138.391 643.733, 143.589 623.254 C 150.632 595.504, 148.408 561.160, 138.264 541.029 C 132.881 530.345, 127.334 526.997, 120.850 530.519 M 118.304 538.250 C 109.329 547.695, 104.659 567.150, 104.562 595.500 C 104.497 614.365, 105.570 622.873, 109.292 633 C 117.059 654.137, 127.511 652.719, 134.942 629.521 C 139.700 614.670, 140.500 608.332, 140.500 585.500 C 140.500 568.519, 140.143 562.969, 138.633 556.500 C 134.241 537.689, 125.929 530.226, 118.304 538.250 M 398.908 539.890 C 396.382 540.879, 392.178 543.157, 389.567 544.954 C 385.033 548.074, 384.848 548.385, 385.466 551.860 C 386.270 556.381, 391.149 563.642, 400.807 574.689 C 407.695 582.567, 408.472 583.156, 411.249 582.600 C 412.900 582.270, 414.706 582, 415.263 582 C 415.819 582, 410.363 576.333, 403.138 569.406 C 395.912 562.479, 390 556.286, 390 555.643 C 390 555, 390.834 554.030, 391.853 553.487 C 392.872 552.944, 396.548 550.343, 400.021 547.708 C 404.012 544.678, 408.468 542.322, 412.132 541.304 C 415.319 540.417, 417.692 539.311, 417.405 538.846 C 416.451 537.303, 403.677 538.024, 398.908 539.890 M 799.680 540.872 C 797.066 542.596, 793.338 542.779, 748.680 543.377 C 722.181 543.732, 691.725 544.355, 681 544.761 L 661.500 545.500 698 546.113 C 718.075 546.450, 749.227 546.787, 767.227 546.863 L 799.954 547 801.560 544.549 C 802.443 543.201, 803.016 541.404, 802.833 540.556 C 802.544 539.217, 802.127 539.259, 799.680 540.872 M 119.449 547.081 C 113.087 557.159, 109.890 572.969, 109.860 594.500 C 109.830 616.289, 113.695 634.211, 119.451 638.966 C 121.053 640.289, 121.500 640.124, 124.059 637.260 C 127.723 633.159, 128.580 628.255, 127.059 620.084 C 123.233 599.523, 125.321 571.900, 131.737 558.188 C 133.263 554.926, 133.229 554.793, 129.385 549.200 C 127.239 546.079, 124.723 543.378, 123.794 543.199 C 122.704 542.989, 121.163 544.366, 119.449 547.081 M 422.091 551.909 C 420.973 553.027, 418.690 556.653, 417.017 559.966 C 413.486 566.961, 413.888 568.445, 420.290 572.043 C 423.827 574.031, 424.339 574.090, 425.754 572.675 C 428.382 570.046, 430.049 559.609, 428.626 554.694 C 427.232 549.880, 425.050 548.950, 422.091 551.909 M 373.392 560.750 C 370.819 563.321, 365.502 575.464, 363.432 583.500 C 361.588 590.653, 360.754 612.688, 362.195 616.187 C 362.836 617.747, 363.254 617.721, 367.695 615.845 L 372.500 613.814 372.508 602.657 C 372.518 589.677, 373.896 583.122, 378.604 573.664 L 382.006 566.828 379.253 562.936 C 376.105 558.484, 375.780 558.363, 373.392 560.750 M 387.499 580.355 C 384.455 590.827, 382.828 607, 384.819 607 C 386.038 607, 397.533 599.839, 400.458 597.257 C 403.552 594.526, 403.639 592.565, 400.868 588 C 398.024 583.314, 391.032 575, 389.935 575 C 389.451 575, 388.355 577.410, 387.499 580.355 M 697 584.948 C 661.095 585.450, 657.158 585.670, 653.738 587.369 C 649.369 589.541, 645.317 594.025, 643.226 599 C 640.015 606.645, 627 653.124, 627 656.949 C 627 659.576, 830.867 656.849, 831.760 654.209 C 832.118 653.150, 821.328 605.620, 819.389 599.719 C 817.431 593.757, 813.958 589.559, 808.624 586.706 C 804.610 584.559, 803.596 584.499, 770.500 584.448 C 751.800 584.420, 718.725 584.645, 697 584.948 M 415.862 591.832 C 413.207 594.204, 412.622 595.544, 412.257 600.082 C 411.896 604.579, 412.225 606.093, 414.192 608.987 C 417.230 613.457, 420.755 614.758, 425.029 612.988 C 432.518 609.886, 433.153 594.199, 425.941 590.470 C 421.799 588.327, 419.425 588.648, 415.862 591.832 M 658.021 593.116 C 655.169 594.254, 652 596.912, 652 598.166 C 652 598.637, 660.212 598.787, 670.250 598.499 C 680.288 598.211, 715.275 597.489, 748 596.894 C 780.725 596.299, 807.724 595.593, 807.998 595.325 C 808.273 595.056, 807.624 594.198, 806.557 593.418 C 804.923 592.224, 793.259 592.010, 732.559 592.063 C 687.534 592.103, 659.570 592.498, 658.021 593.116 M 544.479 593.929 C 542.818 594.328, 540.207 595.473, 538.678 596.475 C 535.881 598.308, 532.396 603.730, 533.382 604.715 C 534.154 605.487, 570.377 606.818, 571.170 606.104 C 572.185 605.189, 574.861 594.194, 574.224 593.557 C 573.419 592.753, 548.062 593.070, 544.479 593.929 M 449.756 615.250 C 451.003 623.588, 451.781 654.547, 450.868 659.489 C 450.541 661.259, 451.218 661.550, 457 662.123 C 460.575 662.478, 469.980 663.099, 477.900 663.504 L 492.301 664.240 491.679 660.412 C 490.633 653.961, 481.464 636.933, 474.219 627.982 C 467.818 620.075, 451.995 606, 449.507 606 C 448.679 606, 448.746 608.500, 449.756 615.250 M 386 616.113 C 376.925 621.092, 368.841 625.804, 368.036 626.583 C 366.760 627.818, 366.905 628, 369.163 628 C 373.694 628, 390.334 622.342, 396.047 618.859 C 405.792 612.917, 406.319 612.406, 405.606 609.568 C 405.252 608.156, 404.408 607.013, 403.731 607.030 C 403.054 607.046, 395.075 611.133, 386 616.113 M 528.640 616.495 C 528.262 617.480, 528.183 618.517, 528.465 618.798 C 528.747 619.080, 537.982 619.527, 548.989 619.792 C 568.911 620.272, 569 620.264, 569 618.137 C 569 616.203, 568.455 616, 563.250 615.996 C 560.087 615.994, 551.161 615.703, 543.414 615.348 C 530.455 614.755, 529.273 614.847, 528.640 616.495 M 402 620.919 L 393.500 622.642 403.500 623.311 C 409 623.679, 414.738 624.262, 416.250 624.606 C 419.729 625.399, 420.060 622.856, 416.777 620.557 C 414.098 618.680, 412.899 618.709, 402 620.919 M 432.196 620.263 C 430.010 622.898, 428.721 631.220, 429.312 638.885 C 430.934 659.928, 435.757 649.114, 435.170 625.750 C 435.003 619.112, 434.272 617.763, 432.196 620.263 M 162.797 637.250 C 162.595 641.237, 162.724 644.868, 163.083 645.318 C 163.721 646.118, 178.836 647.730, 263 655.979 C 285.825 658.216, 314.778 661.186, 327.341 662.579 C 339.903 663.972, 350.796 664.974, 351.546 664.806 C 352.632 664.563, 352.562 664.042, 351.205 662.260 C 349.662 660.233, 347.742 659.830, 331 658.024 C 320.825 656.926, 292.475 654.219, 268 652.009 C 243.525 649.799, 215.625 647.275, 206 646.400 C 196.375 645.525, 187.825 644.404, 187 643.909 C 185.206 642.832, 233.965 643.647, 258 645.096 C 271.901 645.933, 308.287 648.942, 336.750 651.608 C 343.006 652.194, 344 652.068, 344 650.691 C 344 647.110, 341.677 644.030, 338.597 643.528 C 334.536 642.866, 280.945 638.371, 260.500 636.978 C 251.700 636.378, 227.005 634.563, 205.623 632.944 C 184.241 631.325, 165.940 630, 164.955 630 C 163.432 630, 163.109 631.085, 162.797 637.250 M 400.250 632.247 C 398.462 632.820, 397 633.797, 397 634.417 C 397 636.600, 404.551 648.331, 409.051 653.138 C 416.876 661.497, 418.259 659.547, 415.875 643.517 C 414.101 631.590, 410.468 628.969, 400.250 632.247 M 522.074 633.411 C 521.430 634.187, 521.262 635.033, 521.701 635.290 C 522.141 635.548, 531.490 635.926, 542.478 636.129 C 560.284 636.460, 562.491 636.324, 562.776 634.879 C 563.262 632.424, 560.237 632.029, 540.872 632.014 C 526.905 632.003, 523.002 632.293, 522.074 633.411 M 373.750 636.203 C 371.307 636.851, 370 637.782, 370 638.872 C 370 642.040, 377.510 653.255, 383 658.287 C 393.437 667.852, 406.636 671.709, 418.918 668.781 C 426.759 666.912, 426.398 665.407, 417.940 664.698 C 404.407 663.564, 393.077 655.927, 383.152 641.250 C 380.827 637.813, 378.605 635.047, 378.213 635.103 C 377.821 635.160, 375.813 635.655, 373.750 636.203 M 774 646.042 C 660.460 649.121, 633.223 650.658, 688.500 650.867 C 725.358 651.006, 820.412 649.295, 822.863 648.447 C 823.953 648.070, 823.979 647.679, 822.990 646.488 C 821.612 644.827, 819.496 644.808, 774 646.042 M 882.618 669.541 C 876.422 670.890, 849.190 672.914, 832.819 673.242 C 824.583 673.406, 822.829 673.155, 821.066 671.560 C 818.796 669.505, 816.736 669.520, 758 672.017 C 745.075 672.567, 714.532 672.969, 690.126 672.911 L 645.753 672.807 642.698 675.065 L 639.643 677.324 577.071 676.665 C 542.657 676.303, 503.475 675.559, 490 675.012 C 446.678 673.252, 449.500 673.218, 449.500 675.500 C 449.500 677.303, 450.387 677.565, 458.500 678.160 C 476.260 679.462, 533.487 681.013, 587.761 681.664 L 643.023 682.327 645.439 680.057 L 647.856 677.787 700.678 677.460 C 729.730 677.280, 767.448 676.428, 784.496 675.567 C 814.946 674.030, 815.519 674.036, 816.996 675.941 C 818.438 677.799, 819.331 677.842, 838.645 676.987 C 875.374 675.360, 887.912 673.798, 890.184 670.568 C 890.933 669.502, 890.290 667.923, 889.191 668.130 C 888.811 668.202, 885.853 668.837, 882.618 669.541" stroke="none" fill="#000000" fill-rule="evenodd"/>
</svg>