<svg width="500" height="500" viewBox="0 0 500 500" fill="none" xmlns="http://www.w3.org/2000/svg">
<path fill-rule="evenodd" clip-rule="evenodd" d="M298.354 80.2392C288.639 74.8358 277.706 72 266.589 72C256.848 72 246.604 74.3706 237.841 78.545L184.481 108.168L131.122 137.792L131.111 137.798C120.919 143.479 112.435 151.786 106.538 161.855C100.645 171.919 97.552 183.376 97.5803 195.037V306.652C97.5555 318.311 100.65 329.765 106.544 339.825C112.44 349.89 120.923 358.193 131.111 363.873L131.122 363.878L234.813 421.442L234.824 421.448C239.701 424.16 245.145 426.277 250.474 427.153C255.113 427.915 262.998 428.26 269.384 423.074C271.948 420.991 274.794 418.243 276.694 414.028C278.305 410.456 278.77 406.715 279.082 404.211L279.194 403.306V253.452V251.355C284.654 250.132 290.184 248.229 294.976 245.711L295.21 245.588L295.439 245.455L295.442 245.454L296.149 245.046L296.859 244.635L298.199 243.861C299.989 242.828 302.598 241.319 305.882 239.417C312.449 235.614 321.715 230.24 332.511 223.953C354.097 211.383 381.83 195.148 406.354 180.524C408.776 179.08 412.004 177.005 414.663 173.914C417.699 170.384 419.38 166.296 419.941 161.805C420.337 158.64 420.013 155.168 418.446 151.752C416.974 148.541 414.813 146.282 413.017 144.748C410.169 142.314 406.215 140.119 402.935 138.298L402.924 138.292C402.633 138.13 402.347 137.971 402.067 137.815L402.057 137.809L298.366 80.2458L298.354 80.2392ZM250.642 251.148C245.617 250.028 239.87 248.238 235.05 245.51L234.997 245.48L186.372 217.372L150.025 195.538C143.643 191.704 141.578 183.424 145.411 177.042C149.245 170.661 157.526 168.595 163.907 172.429L200.06 194.146L248.37 222.072C249.972 222.968 252.843 224.019 256.507 224.835C260.112 225.639 263.517 226.003 265.715 226.003C270.326 226.003 277.354 224.456 282.223 221.957L282.671 221.698L282.983 221.518C283.423 221.264 284.003 220.929 284.712 220.519C286.494 219.489 289.097 217.985 292.373 216.088C298.925 212.294 308.171 206.931 318.945 200.657C338.98 188.99 364.272 174.188 387.338 160.472L285.257 103.803C279.548 100.626 273.123 98.9585 266.589 98.9585C260.056 98.9585 253.63 100.626 247.921 103.803L244.865 105.504H244.823L144.238 161.345L144.229 161.349C138.245 164.687 133.264 169.565 129.801 175.478C126.337 181.393 124.52 188.128 124.539 194.984L124.539 195.002V306.683L124.539 306.7C124.522 313.552 126.341 320.285 129.805 326.198C133.266 332.107 138.245 336.982 144.225 340.319L144.238 340.326L247.921 397.885C249.496 398.761 250.967 399.406 252.236 399.851V252.961V251.486C251.702 251.379 251.17 251.266 250.642 251.148Z" fill="#AAE116"/>
<path d="M235.05 245.51C239.87 248.238 245.617 250.028 250.642 251.148C251.17 251.266 251.702 251.379 252.236 251.486V252.961V399.851C250.967 399.406 249.496 398.761 247.921 397.885L144.238 340.326L144.225 340.319C138.245 336.982 133.266 332.107 129.805 326.198C126.341 320.285 124.522 313.552 124.539 306.7L124.539 306.683V195.002L124.539 194.984C124.52 188.128 126.337 181.393 129.801 175.478C133.264 169.565 138.245 164.687 144.229 161.349L144.238 161.345L244.823 105.504H244.865L247.921 103.803C253.63 100.626 260.056 98.9585 266.589 98.9585C273.123 98.9585 279.548 100.626 285.257 103.803L387.338 160.472C364.272 174.188 338.98 188.99 318.945 200.657C308.171 206.931 298.925 212.294 292.373 216.088C289.097 217.985 286.494 219.489 284.712 220.519C284.003 220.929 283.423 221.264 282.983 221.518L282.671 221.698L282.223 221.957C277.354 224.456 270.326 226.003 265.715 226.003C263.517 226.003 260.112 225.639 256.507 224.835C252.843 224.019 249.972 222.968 248.37 222.072L200.06 194.146L163.907 172.429C157.526 168.595 149.245 170.661 145.411 177.042C141.578 183.424 143.643 191.704 150.025 195.538L186.372 217.372L234.997 245.48L235.05 245.51Z" fill="#AAE116"/>
<path fill-rule="evenodd" clip-rule="evenodd" d="M435.598 195.02C435.598 187.576 429.563 181.541 422.119 181.541C414.674 181.541 408.639 187.576 408.639 195.02V250.844C408.639 258.288 414.674 264.323 422.119 264.323C429.563 264.323 435.598 258.288 435.598 250.844V195.02ZM350.198 392.676C356.708 389.064 359.056 380.858 355.443 374.349C351.831 367.84 343.626 365.492 337.117 369.104L298.232 390.684C291.723 394.297 289.375 402.502 292.987 409.011C296.6 415.52 304.805 417.869 311.314 414.256L350.198 392.676Z" fill="#FFFAEF"/>
<path d="M298.354 80.2392C288.639 74.8358 277.706 72 266.589 72C256.85 72 246.603 74.3727 237.841 78.545L131.122 137.792L131.111 137.798C120.919 143.479 112.435 151.786 106.538 161.855C100.645 171.919 97.552 183.376 97.5803 195.037V306.652C97.5555 318.311 100.65 329.765 106.544 339.825C112.44 349.89 120.923 358.193 131.111 363.873L131.122 363.878L234.813 421.442L234.824 421.448C239.701 424.16 245.145 426.277 250.474 427.153C255.113 427.915 262.998 428.26 269.384 423.074C271.948 420.991 274.794 418.243 276.694 414.028C278.305 410.456 278.77 406.715 279.082 404.211L279.194 403.306V292.362C279.194 284.918 273.159 278.883 265.715 278.883C258.271 278.883 252.236 284.918 252.236 292.362V399.851C250.967 399.406 249.496 398.761 247.921 397.885L144.238 340.326L144.225 340.319C138.245 336.982 133.266 332.107 129.805 326.198C126.341 320.285 124.522 313.552 124.539 306.7L124.539 306.683V195.002L124.539 194.984C124.52 188.128 126.337 181.393 129.801 175.478C133.264 169.565 138.245 164.687 144.229 161.349L144.238 161.345L244.823 105.504H244.865L247.921 103.803C253.63 100.626 260.056 98.9585 266.589 98.9585C273.123 98.9585 279.548 100.626 285.257 103.803L387.338 160.472C364.272 174.188 338.98 188.99 318.945 200.657C308.171 206.931 298.925 212.294 292.373 216.088C289.097 217.985 286.494 219.489 284.712 220.519C284.003 220.929 283.423 221.264 282.983 221.518L282.671 221.698L282.223 221.957C277.354 224.456 270.326 226.003 265.715 226.003C263.517 226.003 260.112 225.639 256.507 224.835C252.843 224.019 249.972 222.968 248.37 222.072L200.06 194.146L163.907 172.429C157.526 168.595 149.245 170.661 145.411 177.042C141.578 183.424 143.643 191.704 150.025 195.538L186.372 217.372L234.997 245.48L235.05 245.51C239.87 248.238 245.617 250.028 250.642 251.148C255.758 252.289 261.16 252.961 265.715 252.961C274.544 252.961 286.043 250.406 294.976 245.711L295.21 245.588L295.439 245.455L295.442 245.454L296.149 245.046L296.859 244.635L298.199 243.861C299.989 242.828 302.598 241.319 305.882 239.417C312.449 235.614 321.715 230.24 332.511 223.953C354.097 211.383 381.83 195.148 406.354 180.524C408.776 179.08 412.004 177.005 414.663 173.914C417.699 170.384 419.38 166.296 419.941 161.805C420.337 158.64 420.013 155.168 418.446 151.752C416.974 148.541 414.813 146.282 413.017 144.748C410.169 142.314 406.215 140.119 402.935 138.298L402.924 138.292C402.633 138.13 402.347 137.971 402.067 137.815L402.057 137.809L298.366 80.2458L298.354 80.2392Z" fill="#FFFAEF"/>
<path fill-rule="evenodd" clip-rule="evenodd" d="M71.24 138.111C74.8133 131.581 83.0043 129.183 89.535 132.757L117.012 147.791C123.543 151.365 125.94 159.555 122.367 166.086C118.793 172.617 110.602 175.014 104.072 171.441L76.5946 156.406C70.0639 152.833 67.6666 144.642 71.24 138.111Z" fill="#FFFAEF"/>
<path fill-rule="evenodd" clip-rule="evenodd" d="M60.7719 122.806C55.6036 122.806 51.9585 126.817 51.9585 131.101C51.9585 135.385 55.6036 139.396 60.7719 139.396C65.9401 139.396 69.5852 135.385 69.5852 131.101C69.5852 126.817 65.9401 122.806 60.7719 122.806ZM25 131.101C25 111.334 41.3164 95.8477 60.7719 95.8477C80.2274 95.8477 96.5438 111.334 96.5438 131.101C96.5438 150.868 80.2274 166.355 60.7719 166.355C41.3164 166.355 25 150.868 25 131.101Z" fill="#FFFAEF"/>
<path fill-rule="evenodd" clip-rule="evenodd" d="M461.521 275.225C468.965 275.225 475 281.259 475 288.704V351.434C475 355.9 472.787 360.077 469.092 362.586L412.582 400.95C406.423 405.132 398.041 403.529 393.859 397.369C389.678 391.21 391.281 382.828 397.44 378.646L436.085 352.41L357.879 307.661C351.418 303.964 349.177 295.729 352.874 289.268C356.571 282.806 364.806 280.565 371.268 284.262L448.041 328.191V288.704C448.041 281.259 454.076 275.225 461.521 275.225Z" fill="#FFFAEF"/>
</svg>
